<svg width="1280" height="720" viewBox="0 0 1280 720" fill="none" xmlns="http://www.w3.org/2000/svg">
  <rect width="1280" height="720" fill="#0A0A0B"/>
  <g opacity="0.06">
    <line x1="0" y1="60" x2="1280" y2="60" stroke="#FFF" stroke-width="0.5"/><line x1="0" y1="120" x2="1280" y2="120" stroke="#FFF" stroke-width="0.5"/><line x1="0" y1="180" x2="1280" y2="180" stroke="#FFF" stroke-width="0.5"/><line x1="0" y1="240" x2="1280" y2="240" stroke="#FFF" stroke-width="0.5"/><line x1="0" y1="300" x2="1280" y2="300" stroke="#FFF" stroke-width="0.5"/><line x1="0" y1="360" x2="1280" y2="360" stroke="#FFF" stroke-width="0.5"/><line x1="0" y1="420" x2="1280" y2="420" stroke="#FFF" stroke-width="0.5"/><line x1="0" y1="480" x2="1280" y2="480" stroke="#FFF" stroke-width="0.5"/><line x1="0" y1="540" x2="1280" y2="540" stroke="#FFF" stroke-width="0.5"/><line x1="0" y1="600" x2="1280" y2="600" stroke="#FFF" stroke-width="0.5"/><line x1="0" y1="660" x2="1280" y2="660" stroke="#FFF" stroke-width="0.5"/>
    <line x1="60" y1="0" x2="60" y2="720" stroke="#FFF" stroke-width="0.5"/><line x1="120" y1="0" x2="120" y2="720" stroke="#FFF" stroke-width="0.5"/><line x1="180" y1="0" x2="180" y2="720" stroke="#FFF" stroke-width="0.5"/><line x1="240" y1="0" x2="240" y2="720" stroke="#FFF" stroke-width="0.5"/><line x1="300" y1="0" x2="300" y2="720" stroke="#FFF" stroke-width="0.5"/><line x1="360" y1="0" x2="360" y2="720" stroke="#FFF" stroke-width="0.5"/><line x1="420" y1="0" x2="420" y2="720" stroke="#FFF" stroke-width="0.5"/><line x1="480" y1="0" x2="480" y2="720" stroke="#FFF" stroke-width="0.5"/><line x1="540" y1="0" x2="540" y2="720" stroke="#FFF" stroke-width="0.5"/><line x1="600" y1="0" x2="600" y2="720" stroke="#FFF" stroke-width="0.5"/><line x1="660" y1="0" x2="660" y2="720" stroke="#FFF" stroke-width="0.5"/><line x1="720" y1="0" x2="720" y2="720" stroke="#FFF" stroke-width="0.5"/><line x1="780" y1="0" x2="780" y2="720" stroke="#FFF" stroke-width="0.5"/><line x1="840" y1="0" x2="840" y2="720" stroke="#FFF" stroke-width="0.5"/><line x1="900" y1="0" x2="900" y2="720" stroke="#FFF" stroke-width="0.5"/><line x1="960" y1="0" x2="960" y2="720" stroke="#FFF" stroke-width="0.5"/><line x1="1020" y1="0" x2="1020" y2="720" stroke="#FFF" stroke-width="0.5"/><line x1="1080" y1="0" x2="1080" y2="720" stroke="#FFF" stroke-width="0.5"/><line x1="1140" y1="0" x2="1140" y2="720" stroke="#FFF" stroke-width="0.5"/><line x1="1200" y1="0" x2="1200" y2="720" stroke="#FFF" stroke-width="0.5"/>
  </g>
  <circle cx="300" cy="500" r="300" fill="#10B981" fill-opacity="0.06"/>
  <rect x="24" y="24" width="1232" height="672" stroke="#FFFFFF" stroke-opacity="0.05"/>

  <text x="48" y="56" fill="#10B981" font-family="monospace" font-size="11" letter-spacing="0.2em">10</text>
  <text x="48" y="110" fill="#FFFFFF" font-family="monospace" font-size="28" font-weight="700">BUSINESS MODEL</text>
  <text x="48" y="137" fill="#A1A1AA" font-family="monospace" font-size="13">REVENUE GROWS WITH USAGE, TEAM ADOPTION, AND PARTNER DISTRIBUTION</text>

  <!-- Left: 3 stat cards -->
  <rect x="48" y="175" width="380" height="130" fill="rgba(10,21,18,0.78)" stroke="rgba(16,185,129,0.28)"/>
  <text x="72" y="205" fill="#10B981" font-family="monospace" font-size="10" letter-spacing="0.2em">USAGE</text>
  <text x="72" y="235" fill="#FFFFFF" font-family="monospace" font-size="20" font-weight="700">PER SEQUENCE</text>
  <text x="72" y="260" fill="#A1A1AA" font-family="monospace" font-size="10">GROW WITH ACTIVITY</text>

  <rect x="48" y="320" width="380" height="130" fill="rgba(10,21,18,0.78)" stroke="rgba(16,185,129,0.28)"/>
  <text x="72" y="350" fill="#10B981" font-family="monospace" font-size="10" letter-spacing="0.2em">TEAMS</text>
  <text x="72" y="380" fill="#FFFFFF" font-family="monospace" font-size="20" font-weight="700">WORKSPACE PLANS</text>
  <text x="72" y="405" fill="#A1A1AA" font-family="monospace" font-size="10">GROW WITH SEATS</text>

  <rect x="48" y="465" width="380" height="130" fill="rgba(10,21,18,0.78)" stroke="rgba(16,185,129,0.28)"/>
  <text x="72" y="495" fill="#10B981" font-family="monospace" font-size="10" letter-spacing="0.2em">PARTNERS</text>
  <text x="72" y="525" fill="#FFFFFF" font-family="monospace" font-size="20" font-weight="700">API / INTEGRATIONS</text>
  <text x="72" y="550" fill="#A1A1AA" font-family="monospace" font-size="10">GROW WITH DISTRIBUTION</text>

  <!-- Right: Expansion loop -->
  <rect x="448" y="175" width="784" height="420" fill="rgba(10,21,18,0.78)" stroke="rgba(16,185,129,0.28)"/>
  <text x="472" y="210" fill="#71717A" font-family="monospace" font-size="10" letter-spacing="0.22em">SIMPLE EXPANSION LOOP</text>

  <!-- 4 loop cards (2x2) -->
  <rect x="472" y="235" width="360" height="80" fill="rgba(10,21,18,0.78)" stroke="rgba(16,185,129,0.28)"/>
  <text x="492" y="260" fill="#FFFFFF" font-family="monospace" font-size="11" font-weight="700">CLEARER PRODUCT</text>
  <text x="492" y="280" fill="#A1A1AA" font-family="monospace" font-size="10">TEAMS UNDERSTAND THE SYSTEM FASTER</text>

  <rect x="848" y="235" width="360" height="80" fill="rgba(10,21,18,0.78)" stroke="rgba(16,185,129,0.28)"/>
  <text x="868" y="260" fill="#FFFFFF" font-family="monospace" font-size="11" font-weight="700">BETTER TRUST</text>
  <text x="868" y="280" fill="#A1A1AA" font-family="monospace" font-size="10">USERS ARE MORE COMFORTABLE STAYING ACTIVE</text>

  <rect x="472" y="330" width="360" height="80" fill="rgba(10,21,18,0.78)" stroke="rgba(16,185,129,0.28)"/>
  <text x="492" y="355" fill="#FFFFFF" font-family="monospace" font-size="11" font-weight="700">MORE USAGE</text>
  <text x="492" y="375" fill="#A1A1AA" font-family="monospace" font-size="10">MORE SESSIONS AND REVIEWS INSIDE FORGE8004</text>

  <rect x="848" y="330" width="360" height="80" fill="rgba(10,21,18,0.78)" stroke="rgba(16,185,129,0.28)"/>
  <text x="868" y="355" fill="#FFFFFF" font-family="monospace" font-size="11" font-weight="700">HIGHER VALUE</text>
  <text x="868" y="375" fill="#A1A1AA" font-family="monospace" font-size="10">THE WORKSPACE BECOMES HARDER TO REPLACE</text>

  <!-- Arrow note -->
  <path d="M472 450L488 450" stroke="#10B981" stroke-width="2"/>
  <path d="M484 444L490 450L484 456" stroke="#10B981" stroke-width="2" fill="none"/>
  <text x="498" y="455" fill="#10B981" font-family="monospace" font-size="11" letter-spacing="0.12em">BETTER CLARITY COMPOUNDS PRODUCT VALUE OVER TIME</text>

  <line x1="48" y1="670" x2="1232" y2="670" stroke="rgba(255,255,255,0.06)"/>
  <text x="48" y="695" fill="#71717A" font-family="monospace" font-size="11" letter-spacing="0.15em">FORGE8004</text>
  <text x="1232" y="695" fill="#71717A" font-family="monospace" font-size="11" text-anchor="end" letter-spacing="0.15em">10 / 12</text>
</svg>