<svg width="1280" height="720" viewBox="0 0 1280 720" fill="none" xmlns="http://www.w3.org/2000/svg">
  <rect width="1280" height="720" fill="#0A0A0B"/>
  <g opacity="0.06">
    <line x1="0" y1="60" x2="1280" y2="60" stroke="#FFF" stroke-width="0.5"/><line x1="0" y1="120" x2="1280" y2="120" stroke="#FFF" stroke-width="0.5"/><line x1="0" y1="180" x2="1280" y2="180" stroke="#FFF" stroke-width="0.5"/><line x1="0" y1="240" x2="1280" y2="240" stroke="#FFF" stroke-width="0.5"/><line x1="0" y1="300" x2="1280" y2="300" stroke="#FFF" stroke-width="0.5"/><line x1="0" y1="360" x2="1280" y2="360" stroke="#FFF" stroke-width="0.5"/><line x1="0" y1="420" x2="1280" y2="420" stroke="#FFF" stroke-width="0.5"/><line x1="0" y1="480" x2="1280" y2="480" stroke="#FFF" stroke-width="0.5"/><line x1="0" y1="540" x2="1280" y2="540" stroke="#FFF" stroke-width="0.5"/><line x1="0" y1="600" x2="1280" y2="600" stroke="#FFF" stroke-width="0.5"/><line x1="0" y1="660" x2="1280" y2="660" stroke="#FFF" stroke-width="0.5"/>
    <line x1="60" y1="0" x2="60" y2="720" stroke="#FFF" stroke-width="0.5"/><line x1="120" y1="0" x2="120" y2="720" stroke="#FFF" stroke-width="0.5"/><line x1="180" y1="0" x2="180" y2="720" stroke="#FFF" stroke-width="0.5"/><line x1="240" y1="0" x2="240" y2="720" stroke="#FFF" stroke-width="0.5"/><line x1="300" y1="0" x2="300" y2="720" stroke="#FFF" stroke-width="0.5"/><line x1="360" y1="0" x2="360" y2="720" stroke="#FFF" stroke-width="0.5"/><line x1="420" y1="0" x2="420" y2="720" stroke="#FFF" stroke-width="0.5"/><line x1="480" y1="0" x2="480" y2="720" stroke="#FFF" stroke-width="0.5"/><line x1="540" y1="0" x2="540" y2="720" stroke="#FFF" stroke-width="0.5"/><line x1="600" y1="0" x2="600" y2="720" stroke="#FFF" stroke-width="0.5"/><line x1="660" y1="0" x2="660" y2="720" stroke="#FFF" stroke-width="0.5"/><line x1="720" y1="0" x2="720" y2="720" stroke="#FFF" stroke-width="0.5"/><line x1="780" y1="0" x2="780" y2="720" stroke="#FFF" stroke-width="0.5"/><line x1="840" y1="0" x2="840" y2="720" stroke="#FFF" stroke-width="0.5"/><line x1="900" y1="0" x2="900" y2="720" stroke="#FFF" stroke-width="0.5"/><line x1="960" y1="0" x2="960" y2="720" stroke="#FFF" stroke-width="0.5"/><line x1="1020" y1="0" x2="1020" y2="720" stroke="#FFF" stroke-width="0.5"/><line x1="1080" y1="0" x2="1080" y2="720" stroke="#FFF" stroke-width="0.5"/><line x1="1140" y1="0" x2="1140" y2="720" stroke="#FFF" stroke-width="0.5"/><line x1="1200" y1="0" x2="1200" y2="720" stroke="#FFF" stroke-width="0.5"/>
  </g>
  <circle cx="1100" cy="600" r="300" fill="#10B981" fill-opacity="0.06"/>
  <rect x="24" y="24" width="1232" height="672" stroke="#FFFFFF" stroke-opacity="0.05"/>

  <text x="48" y="56" fill="#10B981" font-family="monospace" font-size="11" letter-spacing="0.2em">08</text>
  <text x="48" y="110" fill="#FFFFFF" font-family="monospace" font-size="28" font-weight="700">WHO THIS IS FOR</text>
  <text x="48" y="137" fill="#A1A1AA" font-family="monospace" font-size="13">A CLEAR PRODUCT WEDGE WITH ROOM TO EXPAND</text>

  <!-- Left: Near-term users -->
  <rect x="48" y="175" width="580" height="440" fill="rgba(10,21,18,0.78)" stroke="rgba(16,185,129,0.28)"/>
  <text x="72" y="210" fill="#71717A" font-family="monospace" font-size="10" letter-spacing="0.22em">NEAR-TERM USERS</text>

  <rect x="72" y="235" width="532" height="80" fill="none" stroke="rgba(255,255,255,0.08)"/>
  <text x="92" y="265" fill="#FFFFFF" font-family="monospace" font-size="14" font-weight="700">FOUNDERS</text>
  <text x="92" y="290" fill="#A1A1AA" font-family="monospace" font-size="11">NEED A CLEANER WAY TO EXPLAIN WHAT THE AGENT IS DOING</text>

  <rect x="72" y="330" width="532" height="80" fill="none" stroke="rgba(255,255,255,0.08)"/>
  <text x="92" y="360" fill="#FFFFFF" font-family="monospace" font-size="14" font-weight="700">OPS TEAMS</text>
  <text x="92" y="385" fill="#A1A1AA" font-family="monospace" font-size="11">NEED ONE PLACE TO SUPERVISE SIGNALS AND RISK</text>

  <rect x="72" y="425" width="532" height="80" fill="none" stroke="rgba(255,255,255,0.08)"/>
  <text x="92" y="455" fill="#FFFFFF" font-family="monospace" font-size="14" font-weight="700">COMMUNITY LEADS</text>
  <text x="92" y="480" fill="#A1A1AA" font-family="monospace" font-size="11">NEED A CALMER STORY FOR USERS AND PARTNERS</text>

  <!-- Right: Expansion path -->
  <rect x="648" y="175" width="584" height="440" fill="rgba(10,21,18,0.78)" stroke="rgba(16,185,129,0.28)"/>
  <text x="672" y="210" fill="#71717A" font-family="monospace" font-size="10" letter-spacing="0.22em">EXPANSION PATH</text>

  <!-- Step 01 -->
  <rect x="672" y="240" width="36" height="36" fill="rgba(16,185,129,0.12)" stroke="rgba(16,185,129,0.28)"/>
  <text x="690" y="264" fill="#10B981" font-family="monospace" font-size="10" font-weight="700" text-anchor="middle">01</text>
  <text x="722" y="264" fill="#D4D4D8" font-family="monospace" font-size="11">CONSOLE AND TRUST REPORTING</text>

  <!-- Step 02 -->
  <rect x="672" y="295" width="36" height="36" fill="rgba(16,185,129,0.12)" stroke="rgba(16,185,129,0.28)"/>
  <text x="690" y="319" fill="#10B981" font-family="monospace" font-size="10" font-weight="700" text-anchor="middle">02</text>
  <text x="722" y="319" fill="#D4D4D8" font-family="monospace" font-size="11">TEAM CONTROLS AND WORKFLOW RULES</text>

  <!-- Step 03 -->
  <rect x="672" y="350" width="36" height="36" fill="rgba(16,185,129,0.12)" stroke="rgba(16,185,129,0.28)"/>
  <text x="690" y="374" fill="#10B981" font-family="monospace" font-size="10" font-weight="700" text-anchor="middle">03</text>
  <text x="722" y="374" fill="#D4D4D8" font-family="monospace" font-size="11">PARTNER INTEGRATIONS AND DISTRIBUTION</text>

  <!-- Step 04 -->
  <rect x="672" y="405" width="36" height="36" fill="rgba(16,185,129,0.12)" stroke="rgba(16,185,129,0.28)"/>
  <text x="690" y="429" fill="#10B981" font-family="monospace" font-size="10" font-weight="700" text-anchor="middle">04</text>
  <text x="722" y="429" fill="#D4D4D8" font-family="monospace" font-size="11">SHARED OVERSIGHT ACROSS MORE AGENT PRODUCTS</text>

  <line x1="48" y1="670" x2="1232" y2="670" stroke="rgba(255,255,255,0.06)"/>
  <text x="48" y="695" fill="#71717A" font-family="monospace" font-size="11" letter-spacing="0.15em">FORGE8004</text>
  <text x="1232" y="695" fill="#71717A" font-family="monospace" font-size="11" text-anchor="end" letter-spacing="0.15em">08 / 12</text>
</svg>