<svg width="1280" height="720" viewBox="0 0 1280 720" fill="none" xmlns="http://www.w3.org/2000/svg">
  <rect width="1280" height="720" fill="#0A0A0B"/>
  <g opacity="0.06">
    <line x1="0" y1="60" x2="1280" y2="60" stroke="#FFF" stroke-width="0.5"/>
    <line x1="0" y1="120" x2="1280" y2="120" stroke="#FFF" stroke-width="0.5"/>
    <line x1="0" y1="180" x2="1280" y2="180" stroke="#FFF" stroke-width="0.5"/>
    <line x1="0" y1="240" x2="1280" y2="240" stroke="#FFF" stroke-width="0.5"/>
    <line x1="0" y1="300" x2="1280" y2="300" stroke="#FFF" stroke-width="0.5"/>
    <line x1="0" y1="360" x2="1280" y2="360" stroke="#FFF" stroke-width="0.5"/>
    <line x1="0" y1="420" x2="1280" y2="420" stroke="#FFF" stroke-width="0.5"/>
    <line x1="0" y1="480" x2="1280" y2="480" stroke="#FFF" stroke-width="0.5"/>
    <line x1="0" y1="540" x2="1280" y2="540" stroke="#FFF" stroke-width="0.5"/>
    <line x1="0" y1="600" x2="1280" y2="600" stroke="#FFF" stroke-width="0.5"/>
    <line x1="0" y1="660" x2="1280" y2="660" stroke="#FFF" stroke-width="0.5"/>
    <line x1="60" y1="0" x2="60" y2="720" stroke="#FFF" stroke-width="0.5"/>
    <line x1="120" y1="0" x2="120" y2="720" stroke="#FFF" stroke-width="0.5"/>
    <line x1="180" y1="0" x2="180" y2="720" stroke="#FFF" stroke-width="0.5"/>
    <line x1="240" y1="0" x2="240" y2="720" stroke="#FFF" stroke-width="0.5"/>
    <line x1="300" y1="0" x2="300" y2="720" stroke="#FFF" stroke-width="0.5"/>
    <line x1="360" y1="0" x2="360" y2="720" stroke="#FFF" stroke-width="0.5"/>
    <line x1="420" y1="0" x2="420" y2="720" stroke="#FFF" stroke-width="0.5"/>
    <line x1="480" y1="0" x2="480" y2="720" stroke="#FFF" stroke-width="0.5"/>
    <line x1="540" y1="0" x2="540" y2="720" stroke="#FFF" stroke-width="0.5"/>
    <line x1="600" y1="0" x2="600" y2="720" stroke="#FFF" stroke-width="0.5"/>
    <line x1="660" y1="0" x2="660" y2="720" stroke="#FFF" stroke-width="0.5"/>
    <line x1="720" y1="0" x2="720" y2="720" stroke="#FFF" stroke-width="0.5"/>
    <line x1="780" y1="0" x2="780" y2="720" stroke="#FFF" stroke-width="0.5"/>
    <line x1="840" y1="0" x2="840" y2="720" stroke="#FFF" stroke-width="0.5"/>
    <line x1="900" y1="0" x2="900" y2="720" stroke="#FFF" stroke-width="0.5"/>
    <line x1="960" y1="0" x2="960" y2="720" stroke="#FFF" stroke-width="0.5"/>
    <line x1="1020" y1="0" x2="1020" y2="720" stroke="#FFF" stroke-width="0.5"/>
    <line x1="1080" y1="0" x2="1080" y2="720" stroke="#FFF" stroke-width="0.5"/>
    <line x1="1140" y1="0" x2="1140" y2="720" stroke="#FFF" stroke-width="0.5"/>
    <line x1="1200" y1="0" x2="1200" y2="720" stroke="#FFF" stroke-width="0.5"/>
  </g>
  <circle cx="1100" cy="200" r="350" fill="#F59E0B" fill-opacity="0.08"/>
  <rect x="24" y="24" width="1232" height="672" stroke="#FFFFFF" stroke-opacity="0.05"/>

  <!-- Header -->
  <text x="48" y="56" fill="#F59E0B" font-family="monospace" font-size="11" letter-spacing="0.2em">02</text>
  <path d="M70 70L56 77V86C56 94 62 101 70 104C78 101 84 94 84 86V77L70 70Z" stroke="#F59E0B" stroke-width="1.5" fill="none"/>
  <text x="48" y="145" fill="#FFFFFF" font-family="monospace" font-size="28" font-weight="700">THE PROBLEM</text>
  <text x="48" y="172" fill="#A1A1AA" font-family="monospace" font-size="13">TEAMS CANNOT TRUST WHAT THEY CANNOT CLEARLY SEE</text>

  <!-- 4 problem cards (2x2) -->
  <rect x="48" y="210" width="580" height="190" fill="rgba(24,18,7,0.8)" stroke="rgba(245,158,11,0.26)"/>
  <text x="72" y="245" fill="#FFFFFF" font-family="monospace" font-size="14" font-weight="700">BLIND SPOTS</text>
  <text x="72" y="275" fill="#A1A1AA" font-family="monospace" font-size="11" letter-spacing="0.08em">PEOPLE CANNOT TELL WHY THE AGENT IS ACTING.</text>

  <rect x="648" y="210" width="584" height="190" fill="rgba(24,18,7,0.8)" stroke="rgba(245,158,11,0.26)"/>
  <text x="672" y="245" fill="#FFFFFF" font-family="monospace" font-size="14" font-weight="700">NO SHARED STORY</text>
  <text x="672" y="275" fill="#A1A1AA" font-family="monospace" font-size="11" letter-spacing="0.08em">TEAMS AND PARTNERS INTERPRET DIFFERENT</text>
  <text x="672" y="293" fill="#A1A1AA" font-family="monospace" font-size="11" letter-spacing="0.08em">SCREENS DIFFERENTLY.</text>

  <rect x="48" y="420" width="580" height="190" fill="rgba(24,18,7,0.8)" stroke="rgba(245,158,11,0.26)"/>
  <text x="72" y="455" fill="#FFFFFF" font-family="monospace" font-size="14" font-weight="700">OVERSIZED REQUESTS</text>
  <text x="72" y="485" fill="#A1A1AA" font-family="monospace" font-size="11" letter-spacing="0.08em">BIG TRADE IDEAS SHOW UP BEFORE ANY SANE</text>
  <text x="72" y="503" fill="#A1A1AA" font-family="monospace" font-size="11" letter-spacing="0.08em">LIMITS ARE APPLIED.</text>

  <rect x="648" y="420" width="584" height="190" fill="rgba(24,18,7,0.8)" stroke="rgba(245,158,11,0.26)"/>
  <text x="672" y="455" fill="#FFFFFF" font-family="monospace" font-size="14" font-weight="700">LOW TRUST</text>
  <text x="672" y="485" fill="#A1A1AA" font-family="monospace" font-size="11" letter-spacing="0.08em">IT BECOMES HARD TO ONBOARD USERS OR</text>
  <text x="672" y="503" fill="#A1A1AA" font-family="monospace" font-size="11" letter-spacing="0.08em">REVIEWERS WITH CONFIDENCE.</text>

  <!-- Footer -->
  <line x1="48" y1="670" x2="1232" y2="670" stroke="rgba(255,255,255,0.06)"/>
  <text x="48" y="695" fill="#71717A" font-family="monospace" font-size="11" letter-spacing="0.15em">FORGE8004</text>
  <text x="1232" y="695" fill="#71717A" font-family="monospace" font-size="11" text-anchor="end" letter-spacing="0.15em">02 / 12</text>
</svg>