<svg width="1280" height="720" viewBox="0 0 1280 720" fill="none" xmlns="http://www.w3.org/2000/svg">
  <rect width="1280" height="720" fill="#0A0A0B"/>
  <g opacity="0.06">
    <line x1="0" y1="60" x2="1280" y2="60" stroke="#FFF" stroke-width="0.5"/><line x1="0" y1="120" x2="1280" y2="120" stroke="#FFF" stroke-width="0.5"/><line x1="0" y1="180" x2="1280" y2="180" stroke="#FFF" stroke-width="0.5"/><line x1="0" y1="240" x2="1280" y2="240" stroke="#FFF" stroke-width="0.5"/><line x1="0" y1="300" x2="1280" y2="300" stroke="#FFF" stroke-width="0.5"/><line x1="0" y1="360" x2="1280" y2="360" stroke="#FFF" stroke-width="0.5"/><line x1="0" y1="420" x2="1280" y2="420" stroke="#FFF" stroke-width="0.5"/><line x1="0" y1="480" x2="1280" y2="480" stroke="#FFF" stroke-width="0.5"/><line x1="0" y1="540" x2="1280" y2="540" stroke="#FFF" stroke-width="0.5"/><line x1="0" y1="600" x2="1280" y2="600" stroke="#FFF" stroke-width="0.5"/><line x1="0" y1="660" x2="1280" y2="660" stroke="#FFF" stroke-width="0.5"/>
    <line x1="60" y1="0" x2="60" y2="720" stroke="#FFF" stroke-width="0.5"/><line x1="120" y1="0" x2="120" y2="720" stroke="#FFF" stroke-width="0.5"/><line x1="180" y1="0" x2="180" y2="720" stroke="#FFF" stroke-width="0.5"/><line x1="240" y1="0" x2="240" y2="720" stroke="#FFF" stroke-width="0.5"/><line x1="300" y1="0" x2="300" y2="720" stroke="#FFF" stroke-width="0.5"/><line x1="360" y1="0" x2="360" y2="720" stroke="#FFF" stroke-width="0.5"/><line x1="420" y1="0" x2="420" y2="720" stroke="#FFF" stroke-width="0.5"/><line x1="480" y1="0" x2="480" y2="720" stroke="#FFF" stroke-width="0.5"/><line x1="540" y1="0" x2="540" y2="720" stroke="#FFF" stroke-width="0.5"/><line x1="600" y1="0" x2="600" y2="720" stroke="#FFF" stroke-width="0.5"/><line x1="660" y1="0" x2="660" y2="720" stroke="#FFF" stroke-width="0.5"/><line x1="720" y1="0" x2="720" y2="720" stroke="#FFF" stroke-width="0.5"/><line x1="780" y1="0" x2="780" y2="720" stroke="#FFF" stroke-width="0.5"/><line x1="840" y1="0" x2="840" y2="720" stroke="#FFF" stroke-width="0.5"/><line x1="900" y1="0" x2="900" y2="720" stroke="#FFF" stroke-width="0.5"/><line x1="960" y1="0" x2="960" y2="720" stroke="#FFF" stroke-width="0.5"/><line x1="1020" y1="0" x2="1020" y2="720" stroke="#FFF" stroke-width="0.5"/><line x1="1080" y1="0" x2="1080" y2="720" stroke="#FFF" stroke-width="0.5"/><line x1="1140" y1="0" x2="1140" y2="720" stroke="#FFF" stroke-width="0.5"/><line x1="1200" y1="0" x2="1200" y2="720" stroke="#FFF" stroke-width="0.5"/>
  </g>
  <circle cx="640" cy="350" r="300" fill="#F59E0B" fill-opacity="0.06"/>
  <rect x="24" y="24" width="1232" height="672" stroke="#FFFFFF" stroke-opacity="0.05"/>

  <text x="48" y="56" fill="#F59E0B" font-family="monospace" font-size="11" letter-spacing="0.2em">06</text>
  <text x="48" y="110" fill="#FFFFFF" font-family="monospace" font-size="28" font-weight="700">RISK ROUTER</text>
  <text x="48" y="137" fill="#A1A1AA" font-family="monospace" font-size="13">THE SYSTEM CAN SAY NO BEFORE MONEY MOVES</text>

  <!-- 3-column layout: Intent | Router | Outcomes -->
  <!-- Column 1: Incoming intent -->
  <rect x="48" y="180" width="340" height="430" fill="rgba(24,18,7,0.8)" stroke="rgba(245,158,11,0.26)"/>
  <text x="72" y="215" fill="#71717A" font-family="monospace" font-size="10" letter-spacing="0.22em">INCOMING INTENT</text>
  <rect x="72" y="240" width="292" height="36" fill="none" stroke="rgba(255,255,255,0.08)"/>
  <text x="86" y="264" fill="#E4E4E7" font-family="monospace" font-size="11" letter-spacing="0.12em">ASSET PAIR</text>
  <rect x="72" y="286" width="292" height="36" fill="none" stroke="rgba(255,255,255,0.08)"/>
  <text x="86" y="310" fill="#E4E4E7" font-family="monospace" font-size="11" letter-spacing="0.12em">POSITION SIZE</text>
  <rect x="72" y="332" width="292" height="36" fill="none" stroke="rgba(255,255,255,0.08)"/>
  <text x="86" y="356" fill="#E4E4E7" font-family="monospace" font-size="11" letter-spacing="0.12em">CAPITAL REQUESTED</text>
  <rect x="72" y="378" width="292" height="36" fill="none" stroke="rgba(255,255,255,0.08)"/>
  <text x="86" y="402" fill="#E4E4E7" font-family="monospace" font-size="11" letter-spacing="0.12em">ENTRY / STOP / TARGET</text>

  <!-- Arrow -->
  <path d="M408 395L438 395" stroke="#F59E0B" stroke-width="2"/>
  <path d="M432 389L440 395L432 401" stroke="#F59E0B" stroke-width="2" fill="none"/>

  <!-- Column 2: Risk Router center -->
  <rect x="458" y="180" width="340" height="430" fill="rgba(245,158,11,0.06)" stroke="rgba(245,158,11,0.26)"/>
  <!-- Shield -->
  <rect x="578" y="250" width="100" height="100" fill="none" stroke="rgba(245,158,11,0.26)"/>
  <circle cx="628" cy="300" r="40" fill="rgba(245,158,11,0.08)"/>
  <path d="M628 270L608 279V295C608 310 616 323 628 328C640 323 648 310 648 295V279L628 270Z" stroke="#F59E0B" stroke-width="2" fill="none"/>
  <circle cx="628" cy="295" r="6" fill="#F59E0B"/>
  <text x="628" y="390" fill="#FFFFFF" font-family="monospace" font-size="16" font-weight="700" text-anchor="middle">RISK ROUTER</text>
  <text x="628" y="415" fill="#A1A1AA" font-family="monospace" font-size="10" text-anchor="middle">CHECKS SIZING, EXPOSURE, AND LOSS LIMITS.</text>

  <!-- Arrow -->
  <path d="M818 395L848 395" stroke="#F59E0B" stroke-width="2"/>
  <path d="M842 389L850 395L842 401" stroke="#F59E0B" stroke-width="2" fill="none"/>

  <!-- Column 3: Outcomes (split approved/blocked) -->
  <!-- Approved -->
  <rect x="868" y="180" width="364" height="205" fill="rgba(24,18,7,0.8)" stroke="rgba(245,158,11,0.26)"/>
  <text x="892" y="215" fill="#71717A" font-family="monospace" font-size="10" letter-spacing="0.22em">APPROVED</text>
  <circle cx="906" cy="248" r="7" stroke="#F59E0B" stroke-width="1.5" fill="none"/>
  <path d="M903 248L905 250L910 245" stroke="#F59E0B" stroke-width="1.5" fill="none"/>
  <text x="920" y="252" fill="#E4E4E7" font-family="monospace" font-size="11">TRADE CAN PROCEED</text>
  <circle cx="906" cy="278" r="7" stroke="#F59E0B" stroke-width="1.5" fill="none"/>
  <path d="M903 278L905 280L910 275" stroke="#F59E0B" stroke-width="1.5" fill="none"/>
  <text x="920" y="282" fill="#E4E4E7" font-family="monospace" font-size="11">CAPITAL RESERVES UPDATE</text>
  <circle cx="906" cy="308" r="7" stroke="#F59E0B" stroke-width="1.5" fill="none"/>
  <path d="M903 308L905 310L910 305" stroke="#F59E0B" stroke-width="1.5" fill="none"/>
  <text x="920" y="312" fill="#E4E4E7" font-family="monospace" font-size="11">CHECKPOINT RECORDED</text>

  <!-- Blocked -->
  <rect x="868" y="405" width="364" height="205" fill="rgba(24,18,7,0.8)" stroke="rgba(245,158,11,0.26)"/>
  <text x="892" y="440" fill="#71717A" font-family="monospace" font-size="10" letter-spacing="0.22em">BLOCKED</text>
  <rect x="902" y="464" width="8" height="8" fill="#F59E0B"/>
  <text x="920" y="473" fill="#E4E4E7" font-family="monospace" font-size="11">TRADE TOO LARGE</text>
  <rect x="902" y="494" width="8" height="8" fill="#F59E0B"/>
  <text x="920" y="503" fill="#E4E4E7" font-family="monospace" font-size="11">TOO MANY POSITIONS</text>
  <rect x="902" y="524" width="8" height="8" fill="#F59E0B"/>
  <text x="920" y="533" fill="#E4E4E7" font-family="monospace" font-size="11">DAILY LOSS GUARDRAIL HIT</text>

  <line x1="48" y1="670" x2="1232" y2="670" stroke="rgba(255,255,255,0.06)"/>
  <text x="48" y="695" fill="#71717A" font-family="monospace" font-size="11" letter-spacing="0.15em">FORGE8004</text>
  <text x="1232" y="695" fill="#71717A" font-family="monospace" font-size="11" text-anchor="end" letter-spacing="0.15em">06 / 12</text>
</svg>