<svg width="1280" height="720" viewBox="0 0 1280 720" fill="none" xmlns="http://www.w3.org/2000/svg">
  <rect width="1280" height="720" fill="#0A0A0B"/>
  <g opacity="0.06">
    <line x1="0" y1="60" x2="1280" y2="60" stroke="#FFF" stroke-width="0.5"/><line x1="0" y1="120" x2="1280" y2="120" stroke="#FFF" stroke-width="0.5"/><line x1="0" y1="180" x2="1280" y2="180" stroke="#FFF" stroke-width="0.5"/><line x1="0" y1="240" x2="1280" y2="240" stroke="#FFF" stroke-width="0.5"/><line x1="0" y1="300" x2="1280" y2="300" stroke="#FFF" stroke-width="0.5"/><line x1="0" y1="360" x2="1280" y2="360" stroke="#FFF" stroke-width="0.5"/><line x1="0" y1="420" x2="1280" y2="420" stroke="#FFF" stroke-width="0.5"/><line x1="0" y1="480" x2="1280" y2="480" stroke="#FFF" stroke-width="0.5"/><line x1="0" y1="540" x2="1280" y2="540" stroke="#FFF" stroke-width="0.5"/><line x1="0" y1="600" x2="1280" y2="600" stroke="#FFF" stroke-width="0.5"/><line x1="0" y1="660" x2="1280" y2="660" stroke="#FFF" stroke-width="0.5"/>
    <line x1="60" y1="0" x2="60" y2="720" stroke="#FFF" stroke-width="0.5"/><line x1="120" y1="0" x2="120" y2="720" stroke="#FFF" stroke-width="0.5"/><line x1="180" y1="0" x2="180" y2="720" stroke="#FFF" stroke-width="0.5"/><line x1="240" y1="0" x2="240" y2="720" stroke="#FFF" stroke-width="0.5"/><line x1="300" y1="0" x2="300" y2="720" stroke="#FFF" stroke-width="0.5"/><line x1="360" y1="0" x2="360" y2="720" stroke="#FFF" stroke-width="0.5"/><line x1="420" y1="0" x2="420" y2="720" stroke="#FFF" stroke-width="0.5"/><line x1="480" y1="0" x2="480" y2="720" stroke="#FFF" stroke-width="0.5"/><line x1="540" y1="0" x2="540" y2="720" stroke="#FFF" stroke-width="0.5"/><line x1="600" y1="0" x2="600" y2="720" stroke="#FFF" stroke-width="0.5"/><line x1="660" y1="0" x2="660" y2="720" stroke="#FFF" stroke-width="0.5"/><line x1="720" y1="0" x2="720" y2="720" stroke="#FFF" stroke-width="0.5"/><line x1="780" y1="0" x2="780" y2="720" stroke="#FFF" stroke-width="0.5"/><line x1="840" y1="0" x2="840" y2="720" stroke="#FFF" stroke-width="0.5"/><line x1="900" y1="0" x2="900" y2="720" stroke="#FFF" stroke-width="0.5"/><line x1="960" y1="0" x2="960" y2="720" stroke="#FFF" stroke-width="0.5"/><line x1="1020" y1="0" x2="1020" y2="720" stroke="#FFF" stroke-width="0.5"/><line x1="1080" y1="0" x2="1080" y2="720" stroke="#FFF" stroke-width="0.5"/><line x1="1140" y1="0" x2="1140" y2="720" stroke="#FFF" stroke-width="0.5"/><line x1="1200" y1="0" x2="1200" y2="720" stroke="#FFF" stroke-width="0.5"/>
  </g>
  <circle cx="640" cy="300" r="400" fill="#F43F5E" fill-opacity="0.06"/>
  <rect x="24" y="24" width="1232" height="672" stroke="#FFFFFF" stroke-opacity="0.05"/>

  <text x="48" y="56" fill="#F43F5E" font-family="monospace" font-size="11" letter-spacing="0.2em">12</text>
  <text x="48" y="110" fill="#FFFFFF" font-family="monospace" font-size="28" font-weight="700">THE ASK</text>
  <text x="48" y="137" fill="#A1A1AA" font-family="monospace" font-size="13">A CALMER, CLEARER TRUST LAYER FOR AGENT TEAMS</text>

  <!-- Left: What we want next -->
  <rect x="48" y="175" width="580" height="440" fill="rgba(26,10,15,0.82)" stroke="rgba(244,63,94,0.24)"/>
  <text x="72" y="210" fill="#71717A" font-family="monospace" font-size="10" letter-spacing="0.22em">WHAT WE WANT NEXT</text>

  <!-- Pilot users -->
  <rect x="72" y="235" width="532" height="100" fill="rgba(26,10,15,0.82)" stroke="rgba(244,63,94,0.24)"/>
  <text x="92" y="265" fill="#FFFFFF" font-family="monospace" font-size="11" font-weight="700">PILOT USERS</text>
  <text x="92" y="290" fill="#D4D4D8" font-family="monospace" font-size="10">TEAMS WILLING TO SHAPE THE OPERATOR EXPERIENCE WITH REAL FEEDBACK.</text>

  <!-- Design partners -->
  <rect x="72" y="350" width="532" height="100" fill="rgba(26,10,15,0.82)" stroke="rgba(244,63,94,0.24)"/>
  <text x="92" y="380" fill="#FFFFFF" font-family="monospace" font-size="11" font-weight="700">DESIGN PARTNERS</text>
  <text x="92" y="405" fill="#D4D4D8" font-family="monospace" font-size="10">BUILDERS WHO NEED A CLEARER TRUST STORY AROUND THEIR AGENTS.</text>

  <!-- Strategic introductions -->
  <rect x="72" y="465" width="532" height="100" fill="rgba(26,10,15,0.82)" stroke="rgba(244,63,94,0.24)"/>
  <text x="92" y="495" fill="#FFFFFF" font-family="monospace" font-size="11" font-weight="700">STRATEGIC INTRODUCTIONS</text>
  <text x="92" y="520" fill="#D4D4D8" font-family="monospace" font-size="10">PEOPLE WHO CAN OPEN THE RIGHT PARTNER CONVERSATIONS.</text>

  <!-- Right: Big statement -->
  <rect x="648" y="175" width="584" height="440" fill="rgba(26,10,15,0.82)" stroke="rgba(244,63,94,0.24)"/>
  <text x="672" y="210" fill="#71717A" font-family="monospace" font-size="10" letter-spacing="0.22em">WHAT FORGE8004 MAKES EASIER</text>

  <text x="672" y="290" fill="#FFFFFF" font-family="monospace" font-size="32" font-weight="700">UNDERSTAND</text>
  <text x="672" y="330" fill="#FFFFFF" font-family="monospace" font-size="32" font-weight="700">THE AGENT.</text>
  <text x="672" y="380" fill="#FFFFFF" font-family="monospace" font-size="32" font-weight="700">PROTECT</text>
  <text x="672" y="420" fill="#FFFFFF" font-family="monospace" font-size="32" font-weight="700">THE MONEY.</text>
  <text x="672" y="470" fill="#FFFFFF" font-family="monospace" font-size="32" font-weight="700">SHARE</text>
  <text x="672" y="510" fill="#FFFFFF" font-family="monospace" font-size="32" font-weight="700">THE STORY.</text>

  <!-- Bottom tagline -->
  <text x="672" y="570" fill="#F43F5E" font-family="monospace" font-size="11" letter-spacing="0.12em">BUILT FOR TEAMS WHO WANT VISIBILITY BEFORE SCALE</text>
  <text x="672" y="595" fill="#FFFFFF" font-family="monospace" font-size="11" letter-spacing="0.12em">FORGE 8004 // 2026</text>

  <line x1="48" y1="670" x2="1232" y2="670" stroke="rgba(255,255,255,0.06)"/>
  <text x="48" y="695" fill="#71717A" font-family="monospace" font-size="11" letter-spacing="0.15em">FORGE8004</text>
  <text x="1232" y="695" fill="#71717A" font-family="monospace" font-size="11" text-anchor="end" letter-spacing="0.15em">12 / 12</text>
</svg>