<svg width="1280" height="720" viewBox="0 0 1280 720" fill="none" xmlns="http://www.w3.org/2000/svg">
  <rect width="1280" height="720" fill="#0A0A0B"/>
  <g opacity="0.06">
    <line x1="0" y1="60" x2="1280" y2="60" stroke="#FFF" stroke-width="0.5"/><line x1="0" y1="120" x2="1280" y2="120" stroke="#FFF" stroke-width="0.5"/><line x1="0" y1="180" x2="1280" y2="180" stroke="#FFF" stroke-width="0.5"/><line x1="0" y1="240" x2="1280" y2="240" stroke="#FFF" stroke-width="0.5"/><line x1="0" y1="300" x2="1280" y2="300" stroke="#FFF" stroke-width="0.5"/><line x1="0" y1="360" x2="1280" y2="360" stroke="#FFF" stroke-width="0.5"/><line x1="0" y1="420" x2="1280" y2="420" stroke="#FFF" stroke-width="0.5"/><line x1="0" y1="480" x2="1280" y2="480" stroke="#FFF" stroke-width="0.5"/><line x1="0" y1="540" x2="1280" y2="540" stroke="#FFF" stroke-width="0.5"/><line x1="0" y1="600" x2="1280" y2="600" stroke="#FFF" stroke-width="0.5"/><line x1="0" y1="660" x2="1280" y2="660" stroke="#FFF" stroke-width="0.5"/>
    <line x1="60" y1="0" x2="60" y2="720" stroke="#FFF" stroke-width="0.5"/><line x1="120" y1="0" x2="120" y2="720" stroke="#FFF" stroke-width="0.5"/><line x1="180" y1="0" x2="180" y2="720" stroke="#FFF" stroke-width="0.5"/><line x1="240" y1="0" x2="240" y2="720" stroke="#FFF" stroke-width="0.5"/><line x1="300" y1="0" x2="300" y2="720" stroke="#FFF" stroke-width="0.5"/><line x1="360" y1="0" x2="360" y2="720" stroke="#FFF" stroke-width="0.5"/><line x1="420" y1="0" x2="420" y2="720" stroke="#FFF" stroke-width="0.5"/><line x1="480" y1="0" x2="480" y2="720" stroke="#FFF" stroke-width="0.5"/><line x1="540" y1="0" x2="540" y2="720" stroke="#FFF" stroke-width="0.5"/><line x1="600" y1="0" x2="600" y2="720" stroke="#FFF" stroke-width="0.5"/><line x1="660" y1="0" x2="660" y2="720" stroke="#FFF" stroke-width="0.5"/><line x1="720" y1="0" x2="720" y2="720" stroke="#FFF" stroke-width="0.5"/><line x1="780" y1="0" x2="780" y2="720" stroke="#FFF" stroke-width="0.5"/><line x1="840" y1="0" x2="840" y2="720" stroke="#FFF" stroke-width="0.5"/><line x1="900" y1="0" x2="900" y2="720" stroke="#FFF" stroke-width="0.5"/><line x1="960" y1="0" x2="960" y2="720" stroke="#FFF" stroke-width="0.5"/><line x1="1020" y1="0" x2="1020" y2="720" stroke="#FFF" stroke-width="0.5"/><line x1="1080" y1="0" x2="1080" y2="720" stroke="#FFF" stroke-width="0.5"/><line x1="1140" y1="0" x2="1140" y2="720" stroke="#FFF" stroke-width="0.5"/><line x1="1200" y1="0" x2="1200" y2="720" stroke="#FFF" stroke-width="0.5"/>
  </g>
  <circle cx="900" cy="100" r="350" fill="#38BDF8" fill-opacity="0.08"/>
  <rect x="24" y="24" width="1232" height="672" stroke="#FFFFFF" stroke-opacity="0.05"/>

  <text x="48" y="56" fill="#38BDF8" font-family="monospace" font-size="11" letter-spacing="0.2em">03</text>
  <text x="48" y="110" fill="#FFFFFF" font-family="monospace" font-size="28" font-weight="700">WHY NOW</text>
  <text x="48" y="137" fill="#A1A1AA" font-family="monospace" font-size="13">THE NEED IS GROWING FASTER THAN THE VISIBILITY LAYER AROUND IT</text>

  <!-- Left: 3 reason cards -->
  <rect x="48" y="175" width="460" height="130" fill="rgba(8,19,27,0.8)" stroke="rgba(56,189,248,0.24)"/>
  <text x="72" y="210" fill="#FFFFFF" font-family="monospace" font-size="14" font-weight="700">TEAMS WANT ONE VIEW</text>
  <text x="72" y="235" fill="#A1A1AA" font-family="monospace" font-size="11">OPERATORS NEED ONE CALM SCREEN INSTEAD OF FIVE TOOLS.</text>

  <rect x="48" y="320" width="460" height="130" fill="rgba(8,19,27,0.8)" stroke="rgba(56,189,248,0.24)"/>
  <text x="72" y="355" fill="#FFFFFF" font-family="monospace" font-size="14" font-weight="700">CAPITAL NEEDS PROTECTION</text>
  <text x="72" y="380" fill="#A1A1AA" font-family="monospace" font-size="11">THE COST OF CONFUSING OR OVERSIZED TRADES KEEPS RISING.</text>

  <rect x="48" y="465" width="460" height="130" fill="rgba(8,19,27,0.8)" stroke="rgba(56,189,248,0.24)"/>
  <text x="72" y="500" fill="#FFFFFF" font-family="monospace" font-size="14" font-weight="700">TRUST NEEDS PROOF</text>
  <text x="72" y="525" fill="#A1A1AA" font-family="monospace" font-size="11">PEOPLE WANT TO SEE WHAT HAPPENED, NOT JUST HEAR THE PROMISE.</text>

  <!-- Right: Market bars panel -->
  <rect x="530" y="175" width="702" height="420" fill="rgba(8,19,27,0.8)" stroke="rgba(56,189,248,0.24)"/>
  <text x="554" y="210" fill="#71717A" font-family="monospace" font-size="10" letter-spacing="0.22em">WHERE ATTENTION IS BUILDING</text>

  <!-- Bar: AI agent software -->
  <text x="554" y="260" fill="#D4D4D8" font-family="monospace" font-size="11">AI AGENT SOFTWARE</text>
  <rect x="554" y="270" width="540" height="8" fill="rgba(56,189,248,0.15)"/>
  <rect x="554" y="270" width="443" height="8" fill="#38BDF8"/>
  <text x="1100" y="280" fill="#38BDF8" font-family="monospace" font-size="10">RISING</text>

  <!-- Bar: On-chain operations -->
  <text x="554" y="310" fill="#D4D4D8" font-family="monospace" font-size="11">ON-CHAIN OPERATIONS</text>
  <rect x="554" y="320" width="540" height="8" fill="rgba(56,189,248,0.15)"/>
  <rect x="554" y="320" width="383" height="8" fill="#38BDF8"/>
  <text x="1100" y="330" fill="#38BDF8" font-family="monospace" font-size="10">EXPANDING</text>

  <!-- Bar: Team oversight tools -->
  <text x="554" y="360" fill="#D4D4D8" font-family="monospace" font-size="11">TEAM OVERSIGHT TOOLS</text>
  <rect x="554" y="370" width="540" height="8" fill="rgba(56,189,248,0.15)"/>
  <rect x="554" y="370" width="340" height="8" fill="#38BDF8"/>
  <text x="1100" y="380" fill="#38BDF8" font-family="monospace" font-size="10">UNDERSERVED</text>

  <!-- Bar: Trust reporting -->
  <text x="554" y="410" fill="#D4D4D8" font-family="monospace" font-size="11">TRUST REPORTING</text>
  <rect x="554" y="420" width="540" height="8" fill="rgba(56,189,248,0.15)"/>
  <rect x="554" y="420" width="475" height="8" fill="#38BDF8"/>
  <text x="1100" y="430" fill="#38BDF8" font-family="monospace" font-size="10">OPEN LANE</text>

  <!-- 3 audience boxes -->
  <rect x="554" y="460" width="210" height="70" fill="rgba(8,19,27,0.8)" stroke="rgba(56,189,248,0.24)"/>
  <text x="570" y="485" fill="#38BDF8" font-family="monospace" font-size="10" letter-spacing="0.18em">OPERATORS</text>
  <text x="570" y="505" fill="#D4D4D8" font-family="monospace" font-size="10">NEED SAFER VISIBILITY</text>

  <rect x="776" y="460" width="210" height="70" fill="rgba(8,19,27,0.8)" stroke="rgba(56,189,248,0.24)"/>
  <text x="792" y="485" fill="#38BDF8" font-family="monospace" font-size="10" letter-spacing="0.18em">BUILDERS</text>
  <text x="792" y="505" fill="#D4D4D8" font-family="monospace" font-size="10">NEED STRONGER CONFIDENCE</text>

  <rect x="998" y="460" width="210" height="70" fill="rgba(8,19,27,0.8)" stroke="rgba(56,189,248,0.24)"/>
  <text x="1014" y="485" fill="#38BDF8" font-family="monospace" font-size="10" letter-spacing="0.18em">PARTNERS</text>
  <text x="1014" y="505" fill="#D4D4D8" font-family="monospace" font-size="10">NEED A CLEARER STORY</text>

  <line x1="48" y1="670" x2="1232" y2="670" stroke="rgba(255,255,255,0.06)"/>
  <text x="48" y="695" fill="#71717A" font-family="monospace" font-size="11" letter-spacing="0.15em">FORGE8004</text>
  <text x="1232" y="695" fill="#71717A" font-family="monospace" font-size="11" text-anchor="end" letter-spacing="0.15em">03 / 12</text>
</svg>