<svg width="1280" height="720" viewBox="0 0 1280 720" fill="none" xmlns="http://www.w3.org/2000/svg">
  <rect width="1280" height="720" fill="#0A0A0B"/>
  <g opacity="0.06">
    <line x1="0" y1="60" x2="1280" y2="60" stroke="#FFF" stroke-width="0.5"/><line x1="0" y1="120" x2="1280" y2="120" stroke="#FFF" stroke-width="0.5"/><line x1="0" y1="180" x2="1280" y2="180" stroke="#FFF" stroke-width="0.5"/><line x1="0" y1="240" x2="1280" y2="240" stroke="#FFF" stroke-width="0.5"/><line x1="0" y1="300" x2="1280" y2="300" stroke="#FFF" stroke-width="0.5"/><line x1="0" y1="360" x2="1280" y2="360" stroke="#FFF" stroke-width="0.5"/><line x1="0" y1="420" x2="1280" y2="420" stroke="#FFF" stroke-width="0.5"/><line x1="0" y1="480" x2="1280" y2="480" stroke="#FFF" stroke-width="0.5"/><line x1="0" y1="540" x2="1280" y2="540" stroke="#FFF" stroke-width="0.5"/><line x1="0" y1="600" x2="1280" y2="600" stroke="#FFF" stroke-width="0.5"/><line x1="0" y1="660" x2="1280" y2="660" stroke="#FFF" stroke-width="0.5"/>
    <line x1="60" y1="0" x2="60" y2="720" stroke="#FFF" stroke-width="0.5"/><line x1="120" y1="0" x2="120" y2="720" stroke="#FFF" stroke-width="0.5"/><line x1="180" y1="0" x2="180" y2="720" stroke="#FFF" stroke-width="0.5"/><line x1="240" y1="0" x2="240" y2="720" stroke="#FFF" stroke-width="0.5"/><line x1="300" y1="0" x2="300" y2="720" stroke="#FFF" stroke-width="0.5"/><line x1="360" y1="0" x2="360" y2="720" stroke="#FFF" stroke-width="0.5"/><line x1="420" y1="0" x2="420" y2="720" stroke="#FFF" stroke-width="0.5"/><line x1="480" y1="0" x2="480" y2="720" stroke="#FFF" stroke-width="0.5"/><line x1="540" y1="0" x2="540" y2="720" stroke="#FFF" stroke-width="0.5"/><line x1="600" y1="0" x2="600" y2="720" stroke="#FFF" stroke-width="0.5"/><line x1="660" y1="0" x2="660" y2="720" stroke="#FFF" stroke-width="0.5"/><line x1="720" y1="0" x2="720" y2="720" stroke="#FFF" stroke-width="0.5"/><line x1="780" y1="0" x2="780" y2="720" stroke="#FFF" stroke-width="0.5"/><line x1="840" y1="0" x2="840" y2="720" stroke="#FFF" stroke-width="0.5"/><line x1="900" y1="0" x2="900" y2="720" stroke="#FFF" stroke-width="0.5"/><line x1="960" y1="0" x2="960" y2="720" stroke="#FFF" stroke-width="0.5"/><line x1="1020" y1="0" x2="1020" y2="720" stroke="#FFF" stroke-width="0.5"/><line x1="1080" y1="0" x2="1080" y2="720" stroke="#FFF" stroke-width="0.5"/><line x1="1140" y1="0" x2="1140" y2="720" stroke="#FFF" stroke-width="0.5"/><line x1="1200" y1="0" x2="1200" y2="720" stroke="#FFF" stroke-width="0.5"/>
  </g>
  <circle cx="900" cy="500" r="350" fill="#8B5CF6" fill-opacity="0.06"/>
  <rect x="24" y="24" width="1232" height="672" stroke="#FFFFFF" stroke-opacity="0.05"/>

  <text x="48" y="56" fill="#8B5CF6" font-family="monospace" font-size="11" letter-spacing="0.2em">11</text>
  <text x="48" y="110" fill="#FFFFFF" font-family="monospace" font-size="28" font-weight="700">ROADMAP</text>
  <text x="48" y="137" fill="#A1A1AA" font-family="monospace" font-size="13">A PRACTICAL PATH FROM STRONGER CONSOLE TO BROADER PLATFORM</text>

  <!-- Left: Priority ladder + checklist -->
  <rect x="48" y="175" width="540" height="440" fill="rgba(18,11,27,0.82)" stroke="rgba(139,92,246,0.24)"/>
  <text x="72" y="210" fill="#71717A" font-family="monospace" font-size="10" letter-spacing="0.22em">PRIORITY LADDER</text>

  <!-- Bar: Console adoption -->
  <text x="72" y="255" fill="#D4D4D8" font-family="monospace" font-size="11">CONSOLE ADOPTION</text>
  <rect x="72" y="265" width="460" height="10" fill="rgba(139,92,246,0.15)"/>
  <rect x="72" y="265" width="322" height="10" fill="#8B5CF6"/>
  <text x="540" y="275" fill="#8B5CF6" font-family="monospace" font-size="10">NOW</text>

  <!-- Bar: Team controls -->
  <text x="72" y="305" fill="#D4D4D8" font-family="monospace" font-size="11">TEAM CONTROLS</text>
  <rect x="72" y="315" width="460" height="10" fill="rgba(139,92,246,0.15)"/>
  <rect x="72" y="315" width="267" height="10" fill="#8B5CF6"/>
  <text x="540" y="325" fill="#8B5CF6" font-family="monospace" font-size="10">NEXT</text>

  <!-- Bar: Partner APIs -->
  <text x="72" y="355" fill="#D4D4D8" font-family="monospace" font-size="11">PARTNER APIS</text>
  <rect x="72" y="365" width="460" height="10" fill="rgba(139,92,246,0.15)"/>
  <rect x="72" y="365" width="202" height="10" fill="#8B5CF6"/>
  <text x="540" y="375" fill="#8B5CF6" font-family="monospace" font-size="10">LATER</text>

  <!-- Checklist -->
  <circle cx="86" cy="425" r="7" stroke="#8B5CF6" stroke-width="1.5" fill="none"/>
  <path d="M83 425L85 427L90 422" stroke="#8B5CF6" stroke-width="1.5" fill="none"/>
  <text x="100" y="429" fill="#D4D4D8" font-family="monospace" font-size="11">IMPROVE EXPORT-READY STORYTELLING</text>

  <circle cx="86" cy="455" r="7" stroke="#8B5CF6" stroke-width="1.5" fill="none"/>
  <path d="M83 455L85 457L90 452" stroke="#8B5CF6" stroke-width="1.5" fill="none"/>
  <text x="100" y="459" fill="#D4D4D8" font-family="monospace" font-size="11">MAKE TRUST HISTORY EASIER TO REVIEW</text>

  <circle cx="86" cy="485" r="7" stroke="#8B5CF6" stroke-width="1.5" fill="none"/>
  <path d="M83 485L85 487L90 482" stroke="#8B5CF6" stroke-width="1.5" fill="none"/>
  <text x="100" y="489" fill="#D4D4D8" font-family="monospace" font-size="11">ADD MORE TEAM-SAFE CONTROLS</text>

  <!-- Right: 3 phase cards -->
  <rect x="608" y="175" width="624" height="130" fill="rgba(18,11,27,0.82)" stroke="rgba(139,92,246,0.24)"/>
  <text x="632" y="210" fill="#8B5CF6" font-family="monospace" font-size="10" letter-spacing="0.2em">NOW</text>
  <text x="632" y="240" fill="#E4E4E7" font-family="monospace" font-size="12">STABILIZE THE CORE OPERATOR EXPERIENCE AND EXPORT FIDELITY.</text>

  <rect x="608" y="320" width="624" height="130" fill="rgba(18,11,27,0.82)" stroke="rgba(139,92,246,0.24)"/>
  <text x="632" y="355" fill="#8B5CF6" font-family="monospace" font-size="10" letter-spacing="0.2em">NEXT</text>
  <text x="632" y="385" fill="#E4E4E7" font-family="monospace" font-size="12">ADD WORKFLOW CONTROLS, TRUST REPORTING, AND PARTNER-READY VIEWS.</text>

  <rect x="608" y="465" width="624" height="130" fill="rgba(18,11,27,0.82)" stroke="rgba(139,92,246,0.24)"/>
  <text x="632" y="500" fill="#8B5CF6" font-family="monospace" font-size="10" letter-spacing="0.2em">LATER</text>
  <text x="632" y="530" fill="#E4E4E7" font-family="monospace" font-size="12">OPEN A BROADER PLATFORM LAYER FOR INTEGRATIONS AND</text>
  <text x="632" y="550" fill="#E4E4E7" font-family="monospace" font-size="12">MULTI-TEAM OVERSIGHT.</text>

  <line x1="48" y1="670" x2="1232" y2="670" stroke="rgba(255,255,255,0.06)"/>
  <text x="48" y="695" fill="#71717A" font-family="monospace" font-size="11" letter-spacing="0.15em">FORGE8004</text>
  <text x="1232" y="695" fill="#71717A" font-family="monospace" font-size="11" text-anchor="end" letter-spacing="0.15em">11 / 12</text>
</svg>