<svg width="1200" height="630" viewBox="0 0 1200 630" fill="none" xmlns="http://www.w3.org/2000/svg">
  <rect width="1200" height="630" fill="#0A0A0B"/>

  <!-- Grid -->
  <g opacity="0.12">
    <line x1="0" y1="64" x2="1200" y2="64" stroke="#FFF" stroke-width="0.5"/>
    <line x1="0" y1="128" x2="1200" y2="128" stroke="#FFF" stroke-width="0.5"/>
    <line x1="0" y1="192" x2="1200" y2="192" stroke="#FFF" stroke-width="0.5"/>
    <line x1="0" y1="256" x2="1200" y2="256" stroke="#FFF" stroke-width="0.5"/>
    <line x1="0" y1="320" x2="1200" y2="320" stroke="#FFF" stroke-width="0.5"/>
    <line x1="0" y1="384" x2="1200" y2="384" stroke="#FFF" stroke-width="0.5"/>
    <line x1="0" y1="448" x2="1200" y2="448" stroke="#FFF" stroke-width="0.5"/>
    <line x1="0" y1="512" x2="1200" y2="512" stroke="#FFF" stroke-width="0.5"/>
    <line x1="0" y1="576" x2="1200" y2="576" stroke="#FFF" stroke-width="0.5"/>
    <line x1="64" y1="0" x2="64" y2="630" stroke="#FFF" stroke-width="0.5"/>
    <line x1="128" y1="0" x2="128" y2="630" stroke="#FFF" stroke-width="0.5"/>
    <line x1="192" y1="0" x2="192" y2="630" stroke="#FFF" stroke-width="0.5"/>
    <line x1="256" y1="0" x2="256" y2="630" stroke="#FFF" stroke-width="0.5"/>
    <line x1="320" y1="0" x2="320" y2="630" stroke="#FFF" stroke-width="0.5"/>
    <line x1="384" y1="0" x2="384" y2="630" stroke="#FFF" stroke-width="0.5"/>
    <line x1="448" y1="0" x2="448" y2="630" stroke="#FFF" stroke-width="0.5"/>
    <line x1="512" y1="0" x2="512" y2="630" stroke="#FFF" stroke-width="0.5"/>
    <line x1="576" y1="0" x2="576" y2="630" stroke="#FFF" stroke-width="0.5"/>
    <line x1="640" y1="0" x2="640" y2="630" stroke="#FFF" stroke-width="0.5"/>
    <line x1="704" y1="0" x2="704" y2="630" stroke="#FFF" stroke-width="0.5"/>
    <line x1="768" y1="0" x2="768" y2="630" stroke="#FFF" stroke-width="0.5"/>
    <line x1="832" y1="0" x2="832" y2="630" stroke="#FFF" stroke-width="0.5"/>
    <line x1="896" y1="0" x2="896" y2="630" stroke="#FFF" stroke-width="0.5"/>
    <line x1="960" y1="0" x2="960" y2="630" stroke="#FFF" stroke-width="0.5"/>
    <line x1="1024" y1="0" x2="1024" y2="630" stroke="#FFF" stroke-width="0.5"/>
    <line x1="1088" y1="0" x2="1088" y2="630" stroke="#FFF" stroke-width="0.5"/>
    <line x1="1152" y1="0" x2="1152" y2="630" stroke="#FFF" stroke-width="0.5"/>
  </g>

  <!-- Glow orbs -->
  <circle cx="-40" cy="-20" r="340" fill="#10B981" fill-opacity="0.10"/>
  <circle cx="1140" cy="660" r="300" fill="#10B981" fill-opacity="0.07"/>

  <!-- Inner frame -->
  <rect x="24" y="24" width="1152" height="582" stroke="#FFFFFF" stroke-opacity="0.06"/>

  <!-- Top bar: logo + name -->
  <rect x="56" y="56" width="64" height="64" rx="12" fill="#10B981"/>
  <g transform="translate(56, 70) scale(1.14)">
    <path d="M19.3821 23.2895L15.0401 27.6937C13.6029 29.134 11.6622 29.9391 9.64192 29.933C7.62159 29.9268 5.68572 29.11 4.25711 27.6609C2.8285 26.2118 2.02321 24.2481 2.01713 22.1987C2.01102 20.1493 2.80462 18.1808 4.22457 16.723L10.7099 10.1445C10.7066 10.0286 10.7043 9.91248 10.7043 9.79603C10.7036 8.81633 10.8276 7.84064 11.0732 6.89312L2.80432 15.2807C1.00385 17.1201 -0.00454786 19.6085 1.54203e-05 22.2005C0.00457872 24.7926 1.02173 27.2772 2.82866 29.11C4.6356 30.9429 7.08502 31.9746 9.64039 31.9791C12.1958 31.9838 14.6488 30.9609 16.4621 29.1345L20.8039 24.7303L19.3821 23.2895Z" fill="#0A0A0A"/>
    <path d="M34.1052 32C32.837 32.0021 31.5809 31.7502 30.4091 31.2584C29.2373 30.7669 28.1726 30.0451 27.2765 29.1349L15.0401 16.7226C13.2331 14.8846 12.2192 12.3942 12.221 9.79851C12.2228 7.20278 13.2402 4.71389 15.0497 2.87846C16.8592 1.04304 19.3129 0.0111466 21.872 0.00940821C24.4309 0.00766985 26.886 1.03623 28.6978 2.86919L40.9343 15.2814C42.2855 16.6508 43.2059 18.396 43.5789 20.2964C43.9521 22.1966 43.7608 24.1664 43.0297 25.9564C42.2985 27.7464 41.0603 29.276 39.4716 30.352C37.883 31.4278 36.0154 32.0012 34.1052 32ZM28.6978 27.6937C30.1356 29.1311 32.0753 29.9335 34.094 29.9261C36.1126 29.9187 38.0466 29.1019 39.4741 27.6539C40.9015 26.2061 41.7067 24.2443 41.714 22.1967C41.7212 20.149 40.9302 18.1813 39.5131 16.723L27.2767 4.31075C26.5683 3.5818 25.7249 3.00222 24.7948 2.60541C23.8648 2.2086 22.8665 2.00241 21.8576 1.9987C20.8485 1.99497 19.8488 2.19383 18.9159 2.58378C17.9831 2.97373 17.1355 3.5471 16.422 4.27081C15.7085 4.99452 15.1433 5.85428 14.7589 6.80057C14.3744 7.74686 14.1784 8.76095 14.1821 9.78442C14.1857 10.8079 14.389 11.8205 14.7802 12.764C15.1714 13.7074 15.7427 14.563 16.4614 15.2814L28.6978 27.6937Z" fill="#0A0A0A"/>
    <path d="M39.5138 2.86921L35.1719 7.27343L36.5931 8.71498L40.9349 4.31076C42.3727 2.87337 44.3124 2.07089 46.3311 2.07831C48.3497 2.08574 50.2837 2.90247 51.7112 4.35043C53.1386 5.79838 53.9438 7.76007 53.9511 9.80776C53.9583 11.8555 53.1673 13.823 51.7502 15.2814L45.2599 21.865C45.2927 22.9626 45.1689 24.0593 44.8924 25.1209L53.1714 16.723C54.9825 14.8859 56 12.3942 56 9.7961C56 7.19801 54.9825 4.70635 53.1714 2.86921C51.3602 1.03209 48.9039 0 46.3425 0C43.7813 0 41.3249 1.03209 39.5138 2.86921Z" fill="#0A0A0A"/>
  </g>

  <text x="136" y="84" fill="#A1A1AA" font-family="monospace" font-size="15">FORGE8004</text>
  <text x="136" y="108" fill="#10B981" font-family="monospace" font-size="12">ERC-8004 TRUST LAYER</text>

  <!-- Headline -->
  <text x="56" y="230" fill="#FFFFFF" font-family="monospace" font-size="68" font-weight="700">IDENTITY.</text>
  <text x="56" y="310" fill="#FFFFFF" font-family="monospace" font-size="68" font-weight="700">VALIDATION.</text>
  <text x="56" y="390" fill="#10B981" font-family="monospace" font-size="68" font-weight="700">TRUST.</text>

  <!-- Description -->
  <text x="56" y="450" fill="#A1A1AA" font-family="monospace" font-size="16">On-chain agent identity, capital sandboxing,</text>
  <text x="56" y="474" fill="#A1A1AA" font-family="monospace" font-size="16">and transparent trading telemetry on Base.</text>

  <!-- Right side: 3 feature cards -->
  <rect x="740" y="170" width="400" height="90" fill="#10B981" fill-opacity="0.06" stroke="#10B981" stroke-opacity="0.2"/>
  <text x="768" y="205" fill="#10B981" font-family="monospace" font-size="11">AGENT IDENTITY</text>
  <text x="768" y="240" fill="#D4D4D8" font-family="monospace" font-size="13">Wallet, strategy, and ownership metadata</text>

  <rect x="740" y="276" width="400" height="90" fill="#10B981" fill-opacity="0.06" stroke="#10B981" stroke-opacity="0.2"/>
  <text x="768" y="311" fill="#10B981" font-family="monospace" font-size="11">CAPITAL SANDBOX</text>
  <text x="768" y="346" fill="#D4D4D8" font-family="monospace" font-size="13">Funded treasury with risk guardrails</text>

  <rect x="740" y="382" width="400" height="90" fill="#10B981" fill-opacity="0.06" stroke="#10B981" stroke-opacity="0.2"/>
  <text x="768" y="417" fill="#10B981" font-family="monospace" font-size="11">VALIDATION ENGINE</text>
  <text x="768" y="452" fill="#D4D4D8" font-family="monospace" font-size="13">Policy checks before capital moves</text>

  <!-- Bottom rail -->
  <line x1="56" y1="564" x2="1144" y2="564" stroke="#FFFFFF" stroke-opacity="0.07"/>
  <text x="56" y="590" fill="#71717A" font-family="monospace" font-size="12">FORGE8004 // 2026</text>
  <text x="1000" y="590" fill="#71717A" font-family="monospace" font-size="12">BASE SEPOLIA</text>
</svg>
