<svg width="1080" height="1080" viewBox="0 0 1080 1080" fill="none" xmlns="http://www.w3.org/2000/svg">
  <rect width="1080" height="1080" fill="#0A0A0B"/>

  <!-- Grid pattern -->
  <g opacity="0.07">
    <line x1="0" y1="60" x2="1080" y2="60" stroke="#FFF" stroke-width="0.5"/>
    <line x1="0" y1="120" x2="1080" y2="120" stroke="#FFF" stroke-width="0.5"/>
    <line x1="0" y1="180" x2="1080" y2="180" stroke="#FFF" stroke-width="0.5"/>
    <line x1="0" y1="240" x2="1080" y2="240" stroke="#FFF" stroke-width="0.5"/>
    <line x1="0" y1="300" x2="1080" y2="300" stroke="#FFF" stroke-width="0.5"/>
    <line x1="0" y1="360" x2="1080" y2="360" stroke="#FFF" stroke-width="0.5"/>
    <line x1="0" y1="420" x2="1080" y2="420" stroke="#FFF" stroke-width="0.5"/>
    <line x1="0" y1="480" x2="1080" y2="480" stroke="#FFF" stroke-width="0.5"/>
    <line x1="0" y1="540" x2="1080" y2="540" stroke="#FFF" stroke-width="0.5"/>
    <line x1="0" y1="600" x2="1080" y2="600" stroke="#FFF" stroke-width="0.5"/>
    <line x1="0" y1="660" x2="1080" y2="660" stroke="#FFF" stroke-width="0.5"/>
    <line x1="0" y1="720" x2="1080" y2="720" stroke="#FFF" stroke-width="0.5"/>
    <line x1="0" y1="780" x2="1080" y2="780" stroke="#FFF" stroke-width="0.5"/>
    <line x1="0" y1="840" x2="1080" y2="840" stroke="#FFF" stroke-width="0.5"/>
    <line x1="0" y1="900" x2="1080" y2="900" stroke="#FFF" stroke-width="0.5"/>
    <line x1="0" y1="960" x2="1080" y2="960" stroke="#FFF" stroke-width="0.5"/>
    <line x1="0" y1="1020" x2="1080" y2="1020" stroke="#FFF" stroke-width="0.5"/>
    <line x1="60" y1="0" x2="60" y2="1080" stroke="#FFF" stroke-width="0.5"/>
    <line x1="120" y1="0" x2="120" y2="1080" stroke="#FFF" stroke-width="0.5"/>
    <line x1="180" y1="0" x2="180" y2="1080" stroke="#FFF" stroke-width="0.5"/>
    <line x1="240" y1="0" x2="240" y2="1080" stroke="#FFF" stroke-width="0.5"/>
    <line x1="300" y1="0" x2="300" y2="1080" stroke="#FFF" stroke-width="0.5"/>
    <line x1="360" y1="0" x2="360" y2="1080" stroke="#FFF" stroke-width="0.5"/>
    <line x1="420" y1="0" x2="420" y2="1080" stroke="#FFF" stroke-width="0.5"/>
    <line x1="480" y1="0" x2="480" y2="1080" stroke="#FFF" stroke-width="0.5"/>
    <line x1="540" y1="0" x2="540" y2="1080" stroke="#FFF" stroke-width="0.5"/>
    <line x1="600" y1="0" x2="600" y2="1080" stroke="#FFF" stroke-width="0.5"/>
    <line x1="660" y1="0" x2="660" y2="1080" stroke="#FFF" stroke-width="0.5"/>
    <line x1="720" y1="0" x2="720" y2="1080" stroke="#FFF" stroke-width="0.5"/>
    <line x1="780" y1="0" x2="780" y2="1080" stroke="#FFF" stroke-width="0.5"/>
    <line x1="840" y1="0" x2="840" y2="1080" stroke="#FFF" stroke-width="0.5"/>
    <line x1="900" y1="0" x2="900" y2="1080" stroke="#FFF" stroke-width="0.5"/>
    <line x1="960" y1="0" x2="960" y2="1080" stroke="#FFF" stroke-width="0.5"/>
    <line x1="1020" y1="0" x2="1020" y2="1080" stroke="#FFF" stroke-width="0.5"/>
  </g>

  <!-- Glow -->
  <circle cx="-108" cy="-86" r="540" fill="#10B981" fill-opacity="0.14"/>

  <!-- Inner frame -->
  <rect x="32" y="32" width="1016" height="1016" stroke="#FFFFFF" stroke-opacity="0.05"/>

  <!-- Logo box -->
  <rect x="65" y="65" width="76" height="76" fill="rgba(22,22,24,0.88)" stroke="rgba(255,255,255,0.1)"/>
  <path d="M103 73L83 82V95C83 107 91 118 103 122C115 118 123 107 123 95V82L103 73Z" fill="#10B981"/>
  <path d="M103 79L89 85V95C89 104 95 112 103 115C111 112 117 104 117 95V85L103 79Z" fill="#0A0A0A"/>
  <circle cx="103" cy="97" r="8" fill="#10B981"/>

  <!-- Now live label -->
  <text x="1015" y="108" fill="#71717A" font-family="monospace" font-size="14" text-anchor="end" letter-spacing="0.2em" text-transform="uppercase">NOW LIVE</text>

  <!-- Introducing label -->
  <text x="65" y="330" fill="#10B981" font-family="monospace" font-size="14" letter-spacing="0.3em">INTRODUCING FORGE8004</text>

  <!-- Headline -->
  <text x="65" y="410" fill="#FFFFFF" font-family="monospace" font-size="63" font-weight="700" letter-spacing="-0.02em">ONE WORKSPACE FOR</text>
  <text x="65" y="475" fill="#FFFFFF" font-family="monospace" font-size="63" font-weight="700" letter-spacing="-0.02em">EVERY AI AGENT</text>
  <text x="65" y="540" fill="#FFFFFF" font-family="monospace" font-size="63" font-weight="700" letter-spacing="-0.02em">DECISION</text>

  <!-- Description -->
  <text x="65" y="590" fill="#D4D4D8" font-family="sans-serif" font-size="22" line-height="1.45">Follow signals, safety checks, capital movement,</text>
  <text x="65" y="618" fill="#D4D4D8" font-family="sans-serif" font-size="22">and outcomes — all in one place.</text>

  <!-- 4 feature cards -->
  <!-- Identity -->
  <rect x="65" y="670" width="468" height="85" fill="none" stroke="rgba(255,255,255,0.08)"/>
  <rect x="65" y="670" width="468" height="85" fill="rgba(0,0,0,0.25)"/>
  <text x="88" y="700" fill="#10B981" font-family="monospace" font-size="15" font-weight="700">IDENTITY</text>
  <text x="88" y="730" fill="#A1A1AA" font-family="monospace" font-size="14">ON-CHAIN AGENT ID</text>

  <!-- Validation -->
  <rect x="547" y="670" width="468" height="85" fill="none" stroke="rgba(255,255,255,0.08)"/>
  <rect x="547" y="670" width="468" height="85" fill="rgba(0,0,0,0.25)"/>
  <text x="570" y="700" fill="#10B981" font-family="monospace" font-size="15" font-weight="700">VALIDATION</text>
  <text x="570" y="730" fill="#A1A1AA" font-family="monospace" font-size="14">POLICY CHECKS FIRST</text>

  <!-- Capital -->
  <rect x="65" y="770" width="468" height="85" fill="none" stroke="rgba(255,255,255,0.08)"/>
  <rect x="65" y="770" width="468" height="85" fill="rgba(0,0,0,0.25)"/>
  <text x="88" y="800" fill="#10B981" font-family="monospace" font-size="15" font-weight="700">CAPITAL</text>
  <text x="88" y="830" fill="#A1A1AA" font-family="monospace" font-size="14">SANDBOX TREASURY</text>

  <!-- Telemetry -->
  <rect x="547" y="770" width="468" height="85" fill="none" stroke="rgba(255,255,255,0.08)"/>
  <rect x="547" y="770" width="468" height="85" fill="rgba(0,0,0,0.25)"/>
  <text x="570" y="800" fill="#10B981" font-family="monospace" font-size="15" font-weight="700">TELEMETRY</text>
  <text x="570" y="830" fill="#A1A1AA" font-family="monospace" font-size="14">TRANSPARENT LOGS</text>

  <!-- CTA bar -->
  <rect x="65" y="885" width="950" height="60" fill="rgba(16,185,129,0.06)" stroke="rgba(16,185,129,0.25)"/>
  <text x="88" y="922" fill="#FFFFFF" font-family="monospace" font-size="19" font-weight="700">EXPLORE THE WORKSPACE →</text>
  <text x="992" y="922" fill="#10B981" font-family="monospace" font-size="14" text-anchor="end">FORGE8004.XYZ</text>

  <!-- Footer -->
  <line x1="65" y1="975" x2="1015" y2="975" stroke="rgba(255,255,255,0.06)"/>
  <text x="65" y="1010" fill="#71717A" font-family="monospace" font-size="14" letter-spacing="0.2em">FORGE8004 // 2026</text>
  <text x="1015" y="1010" fill="#A1A1AA" font-family="monospace" font-size="14" text-anchor="end" letter-spacing="0.15em">FORGE8004.XYZ</text>
</svg>
