<svg width="1080" height="1350" viewBox="0 0 1080 1350" fill="none" xmlns="http://www.w3.org/2000/svg">
  <rect width="1080" height="1350" fill="#0A0A0B"/>

  <!-- Grid pattern -->
  <g opacity="0.07">
    <line x1="0" y1="60" x2="1080" y2="60" stroke="#FFF" stroke-width="0.5"/>
    <line x1="0" y1="120" x2="1080" y2="120" stroke="#FFF" stroke-width="0.5"/>
    <line x1="0" y1="180" x2="1080" y2="180" stroke="#FFF" stroke-width="0.5"/>
    <line x1="0" y1="240" x2="1080" y2="240" stroke="#FFF" stroke-width="0.5"/>
    <line x1="0" y1="300" x2="1080" y2="300" stroke="#FFF" stroke-width="0.5"/>
    <line x1="0" y1="360" x2="1080" y2="360" stroke="#FFF" stroke-width="0.5"/>
    <line x1="0" y1="420" x2="1080" y2="420" stroke="#FFF" stroke-width="0.5"/>
    <line x1="0" y1="480" x2="1080" y2="480" stroke="#FFF" stroke-width="0.5"/>
    <line x1="0" y1="540" x2="1080" y2="540" stroke="#FFF" stroke-width="0.5"/>
    <line x1="0" y1="600" x2="1080" y2="600" stroke="#FFF" stroke-width="0.5"/>
    <line x1="0" y1="660" x2="1080" y2="660" stroke="#FFF" stroke-width="0.5"/>
    <line x1="0" y1="720" x2="1080" y2="720" stroke="#FFF" stroke-width="0.5"/>
    <line x1="0" y1="780" x2="1080" y2="780" stroke="#FFF" stroke-width="0.5"/>
    <line x1="0" y1="840" x2="1080" y2="840" stroke="#FFF" stroke-width="0.5"/>
    <line x1="0" y1="900" x2="1080" y2="900" stroke="#FFF" stroke-width="0.5"/>
    <line x1="0" y1="960" x2="1080" y2="960" stroke="#FFF" stroke-width="0.5"/>
    <line x1="0" y1="1020" x2="1080" y2="1020" stroke="#FFF" stroke-width="0.5"/>
    <line x1="0" y1="1080" x2="1080" y2="1080" stroke="#FFF" stroke-width="0.5"/>
    <line x1="0" y1="1140" x2="1080" y2="1140" stroke="#FFF" stroke-width="0.5"/>
    <line x1="0" y1="1200" x2="1080" y2="1200" stroke="#FFF" stroke-width="0.5"/>
    <line x1="0" y1="1260" x2="1080" y2="1260" stroke="#FFF" stroke-width="0.5"/>
    <line x1="60" y1="0" x2="60" y2="1350" stroke="#FFF" stroke-width="0.5"/>
    <line x1="120" y1="0" x2="120" y2="1350" stroke="#FFF" stroke-width="0.5"/>
    <line x1="180" y1="0" x2="180" y2="1350" stroke="#FFF" stroke-width="0.5"/>
    <line x1="240" y1="0" x2="240" y2="1350" stroke="#FFF" stroke-width="0.5"/>
    <line x1="300" y1="0" x2="300" y2="1350" stroke="#FFF" stroke-width="0.5"/>
    <line x1="360" y1="0" x2="360" y2="1350" stroke="#FFF" stroke-width="0.5"/>
    <line x1="420" y1="0" x2="420" y2="1350" stroke="#FFF" stroke-width="0.5"/>
    <line x1="480" y1="0" x2="480" y2="1350" stroke="#FFF" stroke-width="0.5"/>
    <line x1="540" y1="0" x2="540" y2="1350" stroke="#FFF" stroke-width="0.5"/>
    <line x1="600" y1="0" x2="600" y2="1350" stroke="#FFF" stroke-width="0.5"/>
    <line x1="660" y1="0" x2="660" y2="1350" stroke="#FFF" stroke-width="0.5"/>
    <line x1="720" y1="0" x2="720" y2="1350" stroke="#FFF" stroke-width="0.5"/>
    <line x1="780" y1="0" x2="780" y2="1350" stroke="#FFF" stroke-width="0.5"/>
    <line x1="840" y1="0" x2="840" y2="1350" stroke="#FFF" stroke-width="0.5"/>
    <line x1="900" y1="0" x2="900" y2="1350" stroke="#FFF" stroke-width="0.5"/>
    <line x1="960" y1="0" x2="960" y2="1350" stroke="#FFF" stroke-width="0.5"/>
    <line x1="1020" y1="0" x2="1020" y2="1350" stroke="#FFF" stroke-width="0.5"/>
  </g>

  <!-- Glow -->
  <circle cx="1166" cy="135" r="486" fill="#38BDF8" fill-opacity="0.14"/>

  <!-- Inner frame -->
  <rect x="32" y="32" width="1016" height="1286" stroke="#FFFFFF" stroke-opacity="0.05"/>

  <!-- Logo -->
  <rect x="65" y="65" width="76" height="76" fill="rgba(22,22,24,0.88)" stroke="rgba(255,255,255,0.1)"/>
  <path d="M103 73L83 82V95C83 107 91 118 103 122C115 118 123 107 123 95V82L103 73Z" fill="#38BDF8"/>
  <path d="M103 79L89 85V95C89 104 95 112 103 115C111 112 117 104 117 95V85L103 79Z" fill="#0A0A0A"/>
  <circle cx="103" cy="97" r="8" fill="#38BDF8"/>

  <!-- Trust layer label -->
  <text x="1015" y="108" fill="#38BDF8" font-family="monospace" font-size="14" text-anchor="end" letter-spacing="0.2em">TRUST LAYER</text>

  <!-- Big quote mark -->
  <text x="65" y="320" fill="rgba(56,189,248,0.15)" font-family="monospace" font-size="86">"</text>

  <!-- Headline -->
  <text x="65" y="380" fill="#FFFFFF" font-family="monospace" font-size="56" font-weight="700">TRUST GROWS WHEN</text>
  <text x="65" y="440" fill="#FFFFFF" font-family="monospace" font-size="56" font-weight="700">PEOPLE CAN SEE</text>
  <text x="65" y="500" fill="#FFFFFF" font-family="monospace" font-size="56" font-weight="700">THE FULL STORY</text>

  <!-- Step 01 - Identity -->
  <rect x="65" y="600" width="60" height="60" fill="rgba(56,189,248,0.08)" stroke="rgba(56,189,248,0.3)"/>
  <text x="95" y="638" fill="#38BDF8" font-family="monospace" font-size="15" font-weight="700" text-anchor="middle">01</text>
  <text x="145" y="622" fill="#FFFFFF" font-family="monospace" font-size="17" font-weight="700">IDENTITY</text>
  <text x="145" y="648" fill="#A1A1AA" font-family="monospace" font-size="14">WHO THE AGENT IS AND WHAT WALLET IT USES</text>

  <!-- Step 02 - Validation -->
  <rect x="65" y="690" width="60" height="60" fill="rgba(56,189,248,0.08)" stroke="rgba(56,189,248,0.3)"/>
  <text x="95" y="728" fill="#38BDF8" font-family="monospace" font-size="15" font-weight="700" text-anchor="middle">02</text>
  <text x="145" y="712" fill="#FFFFFF" font-family="monospace" font-size="17" font-weight="700">VALIDATION</text>
  <text x="145" y="738" fill="#A1A1AA" font-family="monospace" font-size="14">WHAT CHECKS WERE APPLIED BEFORE ACTION</text>

  <!-- Step 03 - Execution -->
  <rect x="65" y="780" width="60" height="60" fill="rgba(56,189,248,0.08)" stroke="rgba(56,189,248,0.3)"/>
  <text x="95" y="818" fill="#38BDF8" font-family="monospace" font-size="15" font-weight="700" text-anchor="middle">03</text>
  <text x="145" y="802" fill="#FFFFFF" font-family="monospace" font-size="17" font-weight="700">EXECUTION</text>
  <text x="145" y="828" fill="#A1A1AA" font-family="monospace" font-size="14">WHAT ACTUALLY HAPPENED ON-CHAIN</text>

  <!-- Step 04 - Reputation -->
  <rect x="65" y="870" width="60" height="60" fill="rgba(56,189,248,0.08)" stroke="rgba(56,189,248,0.3)"/>
  <text x="95" y="908" fill="#38BDF8" font-family="monospace" font-size="15" font-weight="700" text-anchor="middle">04</text>
  <text x="145" y="892" fill="#FFFFFF" font-family="monospace" font-size="17" font-weight="700">REPUTATION</text>
  <text x="145" y="918" fill="#A1A1AA" font-family="monospace" font-size="14">STEADY BEHAVIOR TRACKED OVER TIME</text>

  <!-- CTA bar -->
  <rect x="65" y="1040" width="950" height="60" fill="rgba(56,189,248,0.06)" stroke="rgba(56,189,248,0.25)"/>
  <text x="540" y="1078" fill="#FFFFFF" font-family="monospace" font-size="19" font-weight="700" text-anchor="middle">SEE THE PROOF AT FORGE8004.XYZ</text>

  <!-- Footer -->
  <line x1="65" y1="1230" x2="1015" y2="1230" stroke="rgba(255,255,255,0.06)"/>
  <text x="65" y="1265" fill="#71717A" font-family="monospace" font-size="14" letter-spacing="0.2em">FORGE8004 // 2026</text>
  <text x="1015" y="1265" fill="#A1A1AA" font-family="monospace" font-size="14" text-anchor="end" letter-spacing="0.15em">FORGE8004.XYZ</text>
</svg>