<svg width="1200" height="628" viewBox="0 0 1200 628" fill="none" xmlns="http://www.w3.org/2000/svg">
  <rect width="1200" height="628" fill="#0A0A0B"/>

  <!-- Grid pattern -->
  <g opacity="0.07">
    <line x1="0" y1="60" x2="1200" y2="60" stroke="#FFF" stroke-width="0.5"/>
    <line x1="0" y1="120" x2="1200" y2="120" stroke="#FFF" stroke-width="0.5"/>
    <line x1="0" y1="180" x2="1200" y2="180" stroke="#FFF" stroke-width="0.5"/>
    <line x1="0" y1="240" x2="1200" y2="240" stroke="#FFF" stroke-width="0.5"/>
    <line x1="0" y1="300" x2="1200" y2="300" stroke="#FFF" stroke-width="0.5"/>
    <line x1="0" y1="360" x2="1200" y2="360" stroke="#FFF" stroke-width="0.5"/>
    <line x1="0" y1="420" x2="1200" y2="420" stroke="#FFF" stroke-width="0.5"/>
    <line x1="0" y1="480" x2="1200" y2="480" stroke="#FFF" stroke-width="0.5"/>
    <line x1="0" y1="540" x2="1200" y2="540" stroke="#FFF" stroke-width="0.5"/>
    <line x1="0" y1="600" x2="1200" y2="600" stroke="#FFF" stroke-width="0.5"/>
    <line x1="60" y1="0" x2="60" y2="628" stroke="#FFF" stroke-width="0.5"/>
    <line x1="120" y1="0" x2="120" y2="628" stroke="#FFF" stroke-width="0.5"/>
    <line x1="180" y1="0" x2="180" y2="628" stroke="#FFF" stroke-width="0.5"/>
    <line x1="240" y1="0" x2="240" y2="628" stroke="#FFF" stroke-width="0.5"/>
    <line x1="300" y1="0" x2="300" y2="628" stroke="#FFF" stroke-width="0.5"/>
    <line x1="360" y1="0" x2="360" y2="628" stroke="#FFF" stroke-width="0.5"/>
    <line x1="420" y1="0" x2="420" y2="628" stroke="#FFF" stroke-width="0.5"/>
    <line x1="480" y1="0" x2="480" y2="628" stroke="#FFF" stroke-width="0.5"/>
    <line x1="540" y1="0" x2="540" y2="628" stroke="#FFF" stroke-width="0.5"/>
    <line x1="600" y1="0" x2="600" y2="628" stroke="#FFF" stroke-width="0.5"/>
    <line x1="660" y1="0" x2="660" y2="628" stroke="#FFF" stroke-width="0.5"/>
    <line x1="720" y1="0" x2="720" y2="628" stroke="#FFF" stroke-width="0.5"/>
    <line x1="780" y1="0" x2="780" y2="628" stroke="#FFF" stroke-width="0.5"/>
    <line x1="840" y1="0" x2="840" y2="628" stroke="#FFF" stroke-width="0.5"/>
    <line x1="900" y1="0" x2="900" y2="628" stroke="#FFF" stroke-width="0.5"/>
    <line x1="960" y1="0" x2="960" y2="628" stroke="#FFF" stroke-width="0.5"/>
    <line x1="1020" y1="0" x2="1020" y2="628" stroke="#FFF" stroke-width="0.5"/>
    <line x1="1080" y1="0" x2="1080" y2="628" stroke="#FFF" stroke-width="0.5"/>
    <line x1="1140" y1="0" x2="1140" y2="628" stroke="#FFF" stroke-width="0.5"/>
  </g>

  <!-- Glow -->
  <circle cx="600" cy="-94" r="420" fill="#F59E0B" fill-opacity="0.12"/>

  <!-- Inner frame -->
  <rect x="24" y="24" width="1152" height="580" stroke="#FFFFFF" stroke-opacity="0.05"/>

  <!-- Logo -->
  <rect x="48" y="36" width="50" height="50" fill="rgba(22,22,24,0.88)" stroke="rgba(255,255,255,0.1)"/>
  <path d="M73 42L59 49V58C59 66 65 73 73 76C81 73 87 66 87 58V49L73 42Z" fill="#F59E0B"/>
  <path d="M73 46L63 50V58C63 64 67 69 73 72C79 69 83 64 83 58V50L73 46Z" fill="#0A0A0A"/>
  <circle cx="73" cy="56" r="5" fill="#F59E0B"/>

  <!-- Header text -->
  <text x="112" y="56" fill="#F59E0B" font-family="monospace" font-size="13" letter-spacing="0.25em">RISK ROUTER</text>
  <text x="112" y="74" fill="#71717A" font-family="monospace" font-size="12">THE SYSTEM CAN SAY NO BEFORE MONEY MOVES</text>
  <text x="1152" y="66" fill="#71717A" font-family="monospace" font-size="13" text-anchor="end">FORGE8004</text>

  <!-- Column 1: Incoming Intent -->
  <rect x="48" y="120" width="310" height="400" fill="rgba(0,0,0,0.25)" stroke="rgba(255,255,255,0.08)"/>
  <text x="72" y="155" fill="#71717A" font-family="monospace" font-size="13" letter-spacing="0.2em">INCOMING INTENT</text>
  <rect x="72" y="178" width="262" height="40" fill="none" stroke="rgba(255,255,255,0.06)"/>
  <text x="86" y="204" fill="#E4E4E7" font-family="monospace" font-size="13">ASSET PAIR</text>
  <rect x="72" y="228" width="262" height="40" fill="none" stroke="rgba(255,255,255,0.06)"/>
  <text x="86" y="254" fill="#E4E4E7" font-family="monospace" font-size="13">POSITION SIZE</text>
  <rect x="72" y="278" width="262" height="40" fill="none" stroke="rgba(255,255,255,0.06)"/>
  <text x="86" y="304" fill="#E4E4E7" font-family="monospace" font-size="13">CAPITAL REQUESTED</text>

  <!-- Arrow 1 -->
  <path d="M378 320L418 320" stroke="#F59E0B" stroke-width="2"/>
  <path d="M412 314L420 320L412 326" stroke="#F59E0B" stroke-width="2" fill="none"/>

  <!-- Column 2: Risk Router (center) -->
  <rect x="440" y="120" width="310" height="400" fill="rgba(245,158,11,0.06)" stroke="rgba(245,158,11,0.25)"/>
  <!-- Shield icon -->
  <path d="M595 230L565 245V270C565 292.5 577.5 313.5 595 320C612.5 313.5 625 292.5 625 270V245L595 230Z" stroke="#F59E0B" stroke-width="2" fill="none"/>
  <circle cx="595" cy="270" r="12" fill="#F59E0B" fill-opacity="0.3"/>
  <circle cx="595" cy="270" r="5" fill="#F59E0B"/>
  <text x="595" y="360" fill="#FFFFFF" font-family="monospace" font-size="19" font-weight="700" text-anchor="middle">RISK ROUTER</text>
  <text x="595" y="385" fill="#A1A1AA" font-family="monospace" font-size="12" text-anchor="middle">CHECKS SIZING, EXPOSURE, LIMITS</text>

  <!-- Arrow 2 -->
  <path d="M770 320L810 320" stroke="#F59E0B" stroke-width="2"/>
  <path d="M804 314L812 320L804 326" stroke="#F59E0B" stroke-width="2" fill="none"/>

  <!-- Column 3: Outcome -->
  <rect x="832" y="120" width="320" height="400" fill="rgba(0,0,0,0.25)" stroke="rgba(255,255,255,0.08)"/>
  <text x="856" y="155" fill="#71717A" font-family="monospace" font-size="13" letter-spacing="0.2em">OUTCOME</text>
  <!-- Checkmarks -->
  <circle cx="870" cy="198" r="8" stroke="#F59E0B" stroke-width="1.5" fill="none"/>
  <path d="M866 198L869 201L875 195" stroke="#F59E0B" stroke-width="1.5" fill="none"/>
  <text x="886" y="203" fill="#E4E4E7" font-family="monospace" font-size="13">APPROVED OR BLOCKED</text>

  <circle cx="870" cy="240" r="8" stroke="#F59E0B" stroke-width="1.5" fill="none"/>
  <path d="M866 240L869 243L875 237" stroke="#F59E0B" stroke-width="1.5" fill="none"/>
  <text x="886" y="245" fill="#E4E4E7" font-family="monospace" font-size="13">CAPITAL UPDATED</text>

  <circle cx="870" cy="282" r="8" stroke="#F59E0B" stroke-width="1.5" fill="none"/>
  <path d="M866 282L869 285L875 279" stroke="#F59E0B" stroke-width="1.5" fill="none"/>
  <text x="886" y="287" fill="#E4E4E7" font-family="monospace" font-size="13">CHECKPOINT SAVED</text>

  <!-- Footer -->
  <line x1="48" y1="570" x2="1152" y2="570" stroke="rgba(255,255,255,0.06)"/>
  <text x="48" y="600" fill="#71717A" font-family="monospace" font-size="13" letter-spacing="0.2em">FORGE8004 // 2026</text>
  <text x="1152" y="600" fill="#A1A1AA" font-family="monospace" font-size="13" text-anchor="end" letter-spacing="0.15em">FORGE8004.XYZ</text>
</svg>