<svg width="1080" height="1080" viewBox="0 0 1080 1080" fill="none" xmlns="http://www.w3.org/2000/svg">
  <rect width="1080" height="1080" fill="#0A0A0B"/>

  <!-- Grid pattern -->
  <g opacity="0.07">
    <line x1="0" y1="60" x2="1080" y2="60" stroke="#FFF" stroke-width="0.5"/>
    <line x1="0" y1="120" x2="1080" y2="120" stroke="#FFF" stroke-width="0.5"/>
    <line x1="0" y1="180" x2="1080" y2="180" stroke="#FFF" stroke-width="0.5"/>
    <line x1="0" y1="240" x2="1080" y2="240" stroke="#FFF" stroke-width="0.5"/>
    <line x1="0" y1="300" x2="1080" y2="300" stroke="#FFF" stroke-width="0.5"/>
    <line x1="0" y1="360" x2="1080" y2="360" stroke="#FFF" stroke-width="0.5"/>
    <line x1="0" y1="420" x2="1080" y2="420" stroke="#FFF" stroke-width="0.5"/>
    <line x1="0" y1="480" x2="1080" y2="480" stroke="#FFF" stroke-width="0.5"/>
    <line x1="0" y1="540" x2="1080" y2="540" stroke="#FFF" stroke-width="0.5"/>
    <line x1="0" y1="600" x2="1080" y2="600" stroke="#FFF" stroke-width="0.5"/>
    <line x1="0" y1="660" x2="1080" y2="660" stroke="#FFF" stroke-width="0.5"/>
    <line x1="0" y1="720" x2="1080" y2="720" stroke="#FFF" stroke-width="0.5"/>
    <line x1="0" y1="780" x2="1080" y2="780" stroke="#FFF" stroke-width="0.5"/>
    <line x1="0" y1="840" x2="1080" y2="840" stroke="#FFF" stroke-width="0.5"/>
    <line x1="0" y1="900" x2="1080" y2="900" stroke="#FFF" stroke-width="0.5"/>
    <line x1="0" y1="960" x2="1080" y2="960" stroke="#FFF" stroke-width="0.5"/>
    <line x1="0" y1="1020" x2="1080" y2="1020" stroke="#FFF" stroke-width="0.5"/>
    <line x1="60" y1="0" x2="60" y2="1080" stroke="#FFF" stroke-width="0.5"/>
    <line x1="120" y1="0" x2="120" y2="1080" stroke="#FFF" stroke-width="0.5"/>
    <line x1="180" y1="0" x2="180" y2="1080" stroke="#FFF" stroke-width="0.5"/>
    <line x1="240" y1="0" x2="240" y2="1080" stroke="#FFF" stroke-width="0.5"/>
    <line x1="300" y1="0" x2="300" y2="1080" stroke="#FFF" stroke-width="0.5"/>
    <line x1="360" y1="0" x2="360" y2="1080" stroke="#FFF" stroke-width="0.5"/>
    <line x1="420" y1="0" x2="420" y2="1080" stroke="#FFF" stroke-width="0.5"/>
    <line x1="480" y1="0" x2="480" y2="1080" stroke="#FFF" stroke-width="0.5"/>
    <line x1="540" y1="0" x2="540" y2="1080" stroke="#FFF" stroke-width="0.5"/>
    <line x1="600" y1="0" x2="600" y2="1080" stroke="#FFF" stroke-width="0.5"/>
    <line x1="660" y1="0" x2="660" y2="1080" stroke="#FFF" stroke-width="0.5"/>
    <line x1="720" y1="0" x2="720" y2="1080" stroke="#FFF" stroke-width="0.5"/>
    <line x1="780" y1="0" x2="780" y2="1080" stroke="#FFF" stroke-width="0.5"/>
    <line x1="840" y1="0" x2="840" y2="1080" stroke="#FFF" stroke-width="0.5"/>
    <line x1="900" y1="0" x2="900" y2="1080" stroke="#FFF" stroke-width="0.5"/>
    <line x1="960" y1="0" x2="960" y2="1080" stroke="#FFF" stroke-width="0.5"/>
    <line x1="1020" y1="0" x2="1020" y2="1080" stroke="#FFF" stroke-width="0.5"/>
  </g>

  <!-- Glow -->
  <circle cx="1134" cy="1134" r="432" fill="#10B981" fill-opacity="0.14"/>

  <!-- Inner frame -->
  <rect x="32" y="32" width="1016" height="1016" stroke="#FFFFFF" stroke-opacity="0.05"/>

  <!-- Logo -->
  <rect x="65" y="65" width="76" height="76" fill="rgba(22,22,24,0.88)" stroke="rgba(255,255,255,0.1)"/>
  <path d="M103 73L83 82V95C83 107 91 118 103 122C115 118 123 107 123 95V82L103 73Z" fill="#10B981"/>
  <path d="M103 79L89 85V95C89 104 95 112 103 115C111 112 117 104 117 95V85L103 79Z" fill="#0A0A0A"/>
  <circle cx="103" cy="97" r="8" fill="#10B981"/>

  <!-- Header -->
  <text x="160" y="92" fill="#FFFFFF" font-family="monospace" font-size="22" font-weight="700">OPERATOR SNAPSHOT</text>
  <text x="160" y="118" fill="#71717A" font-family="monospace" font-size="14">REAL-TIME AGENT METRICS</text>

  <!-- Live indicator -->
  <circle cx="990" cy="95" r="5" fill="#10B981"/>
  <text x="1015" y="100" fill="#10B981" font-family="monospace" font-size="14" text-anchor="end">LIVE</text>

  <!-- 6 stat cards (3x2 grid) -->
  <!-- Row 1 -->
  <!-- Agents -->
  <rect x="65" y="200" width="300" height="180" fill="rgba(0,0,0,0.25)" stroke="rgba(255,255,255,0.08)"/>
  <text x="90" y="235" fill="#71717A" font-family="monospace" font-size="13" letter-spacing="0.2em">AGENTS</text>
  <text x="90" y="300" fill="#FFFFFF" font-family="monospace" font-size="43" font-weight="700">12</text>
  <text x="90" y="330" fill="#10B981" font-family="monospace" font-size="14">REGISTERED</text>

  <!-- Sequences -->
  <rect x="390" y="200" width="300" height="180" fill="rgba(0,0,0,0.25)" stroke="rgba(255,255,255,0.08)"/>
  <text x="415" y="235" fill="#71717A" font-family="monospace" font-size="13" letter-spacing="0.2em">SEQUENCES</text>
  <text x="415" y="300" fill="#FFFFFF" font-family="monospace" font-size="43" font-weight="700">847</text>
  <text x="415" y="330" fill="#10B981" font-family="monospace" font-size="14">COMPLETED</text>

  <!-- Blocked -->
  <rect x="715" y="200" width="300" height="180" fill="rgba(0,0,0,0.25)" stroke="rgba(255,255,255,0.08)"/>
  <text x="740" y="235" fill="#71717A" font-family="monospace" font-size="13" letter-spacing="0.2em">BLOCKED</text>
  <text x="740" y="300" fill="#FFFFFF" font-family="monospace" font-size="43" font-weight="700">23</text>
  <text x="740" y="330" fill="#10B981" font-family="monospace" font-size="14">BY RISK ROUTER</text>

  <!-- Row 2 -->
  <!-- Capital -->
  <rect x="65" y="405" width="300" height="180" fill="rgba(0,0,0,0.25)" stroke="rgba(255,255,255,0.08)"/>
  <text x="90" y="440" fill="#71717A" font-family="monospace" font-size="13" letter-spacing="0.2em">CAPITAL</text>
  <text x="90" y="505" fill="#FFFFFF" font-family="monospace" font-size="43" font-weight="700">$240k</text>
  <text x="90" y="535" fill="#10B981" font-family="monospace" font-size="14">UNDER MANAGEMENT</text>

  <!-- Uptime -->
  <rect x="390" y="405" width="300" height="180" fill="rgba(0,0,0,0.25)" stroke="rgba(255,255,255,0.08)"/>
  <text x="415" y="440" fill="#71717A" font-family="monospace" font-size="13" letter-spacing="0.2em">UPTIME</text>
  <text x="415" y="505" fill="#FFFFFF" font-family="monospace" font-size="43" font-weight="700">99.8%</text>
  <text x="415" y="535" fill="#10B981" font-family="monospace" font-size="14">LAST 30 DAYS</text>

  <!-- Trust Score -->
  <rect x="715" y="405" width="300" height="180" fill="rgba(0,0,0,0.25)" stroke="rgba(255,255,255,0.08)"/>
  <text x="740" y="440" fill="#71717A" font-family="monospace" font-size="13" letter-spacing="0.2em">TRUST SCORE</text>
  <text x="740" y="505" fill="#FFFFFF" font-family="monospace" font-size="43" font-weight="700">A+</text>
  <text x="740" y="535" fill="#10B981" font-family="monospace" font-size="14">REPUTATION TIER</text>

  <!-- Footer -->
  <line x1="65" y1="975" x2="1015" y2="975" stroke="rgba(255,255,255,0.06)"/>
  <text x="65" y="1010" fill="#71717A" font-family="monospace" font-size="14" letter-spacing="0.2em">FORGE8004 // 2026</text>
  <text x="1015" y="1010" fill="#A1A1AA" font-family="monospace" font-size="14" text-anchor="end" letter-spacing="0.15em">FORGE8004.XYZ</text>
</svg>