<svg width="1080" height="1920" viewBox="0 0 1080 1920" fill="none" xmlns="http://www.w3.org/2000/svg">
  <rect width="1080" height="1920" fill="#0A0A0B"/>

  <!-- Grid pattern -->
  <g opacity="0.07">
    <line x1="0" y1="60" x2="1080" y2="60" stroke="#FFF" stroke-width="0.5"/>
    <line x1="0" y1="120" x2="1080" y2="120" stroke="#FFF" stroke-width="0.5"/>
    <line x1="0" y1="180" x2="1080" y2="180" stroke="#FFF" stroke-width="0.5"/>
    <line x1="0" y1="240" x2="1080" y2="240" stroke="#FFF" stroke-width="0.5"/>
    <line x1="0" y1="300" x2="1080" y2="300" stroke="#FFF" stroke-width="0.5"/>
    <line x1="0" y1="360" x2="1080" y2="360" stroke="#FFF" stroke-width="0.5"/>
    <line x1="0" y1="420" x2="1080" y2="420" stroke="#FFF" stroke-width="0.5"/>
    <line x1="0" y1="480" x2="1080" y2="480" stroke="#FFF" stroke-width="0.5"/>
    <line x1="0" y1="540" x2="1080" y2="540" stroke="#FFF" stroke-width="0.5"/>
    <line x1="0" y1="600" x2="1080" y2="600" stroke="#FFF" stroke-width="0.5"/>
    <line x1="0" y1="660" x2="1080" y2="660" stroke="#FFF" stroke-width="0.5"/>
    <line x1="0" y1="720" x2="1080" y2="720" stroke="#FFF" stroke-width="0.5"/>
    <line x1="0" y1="780" x2="1080" y2="780" stroke="#FFF" stroke-width="0.5"/>
    <line x1="0" y1="840" x2="1080" y2="840" stroke="#FFF" stroke-width="0.5"/>
    <line x1="0" y1="900" x2="1080" y2="900" stroke="#FFF" stroke-width="0.5"/>
    <line x1="0" y1="960" x2="1080" y2="960" stroke="#FFF" stroke-width="0.5"/>
    <line x1="60" y1="0" x2="60" y2="1920" stroke="#FFF" stroke-width="0.5"/>
    <line x1="120" y1="0" x2="120" y2="1920" stroke="#FFF" stroke-width="0.5"/>
    <line x1="180" y1="0" x2="180" y2="1920" stroke="#FFF" stroke-width="0.5"/>
    <line x1="240" y1="0" x2="240" y2="1920" stroke="#FFF" stroke-width="0.5"/>
    <line x1="300" y1="0" x2="300" y2="1920" stroke="#FFF" stroke-width="0.5"/>
    <line x1="360" y1="0" x2="360" y2="1920" stroke="#FFF" stroke-width="0.5"/>
    <line x1="420" y1="0" x2="420" y2="1920" stroke="#FFF" stroke-width="0.5"/>
    <line x1="480" y1="0" x2="480" y2="1920" stroke="#FFF" stroke-width="0.5"/>
    <line x1="540" y1="0" x2="540" y2="1920" stroke="#FFF" stroke-width="0.5"/>
    <line x1="600" y1="0" x2="600" y2="1920" stroke="#FFF" stroke-width="0.5"/>
    <line x1="660" y1="0" x2="660" y2="1920" stroke="#FFF" stroke-width="0.5"/>
    <line x1="720" y1="0" x2="720" y2="1920" stroke="#FFF" stroke-width="0.5"/>
    <line x1="780" y1="0" x2="780" y2="1920" stroke="#FFF" stroke-width="0.5"/>
    <line x1="840" y1="0" x2="840" y2="1920" stroke="#FFF" stroke-width="0.5"/>
    <line x1="900" y1="0" x2="900" y2="1920" stroke="#FFF" stroke-width="0.5"/>
    <line x1="960" y1="0" x2="960" y2="1920" stroke="#FFF" stroke-width="0.5"/>
    <line x1="1020" y1="0" x2="1020" y2="1920" stroke="#FFF" stroke-width="0.5"/>
  </g>

  <!-- Glow -->
  <circle cx="-108" cy="384" r="540" fill="#8B5CF6" fill-opacity="0.12"/>

  <!-- Inner frame -->
  <rect x="38" y="38" width="1004" height="1844" stroke="#FFFFFF" stroke-opacity="0.05"/>

  <!-- Logo -->
  <rect x="76" y="76" width="86" height="86" fill="rgba(22,22,24,0.88)" stroke="rgba(255,255,255,0.1)"/>
  <path d="M119 84L99 93V106C99 118 107 129 119 133C131 129 139 118 139 106V93L119 84Z" fill="#8B5CF6"/>
  <path d="M119 90L105 96V106C105 115 111 123 119 126C127 123 133 115 133 106V96L119 90Z" fill="#0A0A0A"/>
  <circle cx="119" cy="108" r="8" fill="#8B5CF6"/>

  <!-- How it works label -->
  <text x="1004" y="125" fill="#8B5CF6" font-family="monospace" font-size="14" text-anchor="end" letter-spacing="0.2em">HOW IT WORKS</text>

  <!-- Headline -->
  <text x="76" y="310" fill="#FFFFFF" font-family="monospace" font-size="65" font-weight="700">FIVE STEPS</text>
  <text x="76" y="380" fill="#FFFFFF" font-family="monospace" font-size="65" font-weight="700">FROM SIGNAL</text>
  <text x="76" y="450" fill="#FFFFFF" font-family="monospace" font-size="65" font-weight="700">TO RECORD</text>

  <!-- Step 01 - Register -->
  <rect x="76" y="560" width="130" height="130" fill="rgba(139,92,246,0.06)" stroke="rgba(139,92,246,0.25)"/>
  <g transform="translate(116,600)">
    <circle cx="25" cy="15" r="12" stroke="#8B5CF6" stroke-width="1.5" fill="none"/>
    <path d="M5 45C5 35 15 28 25 28C35 28 45 35 45 45" stroke="#8B5CF6" stroke-width="1.5" fill="none"/>
  </g>
  <text x="230" y="610" fill="#FFFFFF" font-family="monospace" font-size="24" font-weight="700"><tspan fill="#8B5CF6">01  </tspan>REGISTER</text>
  <text x="230" y="645" fill="#A1A1AA" font-family="monospace" font-size="15">DEFINE AGENT IDENTITY, STRATEGY, AND WALLET</text>

  <!-- Step 02 - Fund Sandbox -->
  <rect x="76" y="730" width="130" height="130" fill="rgba(139,92,246,0.06)" stroke="rgba(139,92,246,0.25)"/>
  <g transform="translate(116,770)">
    <rect x="5" y="10" width="40" height="30" rx="3" stroke="#8B5CF6" stroke-width="1.5" fill="none"/>
    <line x1="5" y1="22" x2="45" y2="22" stroke="#8B5CF6" stroke-width="1.5"/>
  </g>
  <text x="230" y="780" fill="#FFFFFF" font-family="monospace" font-size="24" font-weight="700"><tspan fill="#8B5CF6">02  </tspan>FUND SANDBOX</text>
  <text x="230" y="815" fill="#A1A1AA" font-family="monospace" font-size="15">DEPOSIT CAPITAL INTO A PROTECTED TREASURY</text>

  <!-- Step 03 - Create Intent -->
  <rect x="76" y="900" width="130" height="130" fill="rgba(139,92,246,0.06)" stroke="rgba(139,92,246,0.25)"/>
  <g transform="translate(116,940)">
    <circle cx="25" cy="25" r="18" stroke="#8B5CF6" stroke-width="1.5" fill="none"/>
    <circle cx="25" cy="25" r="5" fill="#8B5CF6"/>
  </g>
  <text x="230" y="950" fill="#FFFFFF" font-family="monospace" font-size="24" font-weight="700"><tspan fill="#8B5CF6">03  </tspan>CREATE INTENT</text>
  <text x="230" y="985" fill="#A1A1AA" font-family="monospace" font-size="15">AGENT GENERATES A TRADE SIGNAL</text>

  <!-- Step 04 - Policy Check -->
  <rect x="76" y="1070" width="130" height="130" fill="rgba(139,92,246,0.06)" stroke="rgba(139,92,246,0.25)"/>
  <g transform="translate(116,1095)">
    <path d="M25 5L5 14V27C5 39 13 50 25 54C37 50 45 39 45 27V14L25 5Z" stroke="#8B5CF6" stroke-width="1.5" fill="none"/>
  </g>
  <text x="230" y="1120" fill="#FFFFFF" font-family="monospace" font-size="24" font-weight="700"><tspan fill="#8B5CF6">04  </tspan>POLICY CHECK</text>
  <text x="230" y="1155" fill="#A1A1AA" font-family="monospace" font-size="15">RISK ROUTER VALIDATES BEFORE EXECUTION</text>

  <!-- Step 05 - Record -->
  <rect x="76" y="1240" width="130" height="130" fill="rgba(139,92,246,0.06)" stroke="rgba(139,92,246,0.25)"/>
  <g transform="translate(116,1270)">
    <circle cx="25" cy="25" r="18" stroke="#8B5CF6" stroke-width="1.5" fill="none"/>
    <path d="M17 25L22 30L33 19" stroke="#8B5CF6" stroke-width="2" fill="none"/>
  </g>
  <text x="230" y="1290" fill="#FFFFFF" font-family="monospace" font-size="24" font-weight="700"><tspan fill="#8B5CF6">05  </tspan>RECORD</text>
  <text x="230" y="1325" fill="#A1A1AA" font-family="monospace" font-size="15">OUTCOME SAVED TO VALIDATION TIMELINE</text>

  <!-- CTA bar -->
  <rect x="76" y="1530" width="928" height="70" fill="rgba(139,92,246,0.06)" stroke="rgba(139,92,246,0.25)"/>
  <text x="540" y="1573" fill="#FFFFFF" font-family="monospace" font-size="22" font-weight="700" text-anchor="middle">START BUILDING TRUST → FORGE8004.XYZ</text>

  <!-- Footer -->
  <line x1="76" y1="1790" x2="1004" y2="1790" stroke="rgba(255,255,255,0.06)"/>
  <text x="76" y="1825" fill="#71717A" font-family="monospace" font-size="14" letter-spacing="0.2em">FORGE8004 // 2026</text>
  <text x="1004" y="1825" fill="#A1A1AA" font-family="monospace" font-size="14" text-anchor="end" letter-spacing="0.15em">FORGE8004.XYZ</text>
</svg>