<svg width="1600" height="900" viewBox="0 0 1600 900" fill="none" xmlns="http://www.w3.org/2000/svg">
  <rect width="1600" height="900" fill="#0A0A0B"/>

  <!-- Grid pattern -->
  <g opacity="0.07">
    <line x1="0" y1="60" x2="1600" y2="60" stroke="#FFF" stroke-width="0.5"/>
    <line x1="0" y1="120" x2="1600" y2="120" stroke="#FFF" stroke-width="0.5"/>
    <line x1="0" y1="180" x2="1600" y2="180" stroke="#FFF" stroke-width="0.5"/>
    <line x1="0" y1="240" x2="1600" y2="240" stroke="#FFF" stroke-width="0.5"/>
    <line x1="0" y1="300" x2="1600" y2="300" stroke="#FFF" stroke-width="0.5"/>
    <line x1="0" y1="360" x2="1600" y2="360" stroke="#FFF" stroke-width="0.5"/>
    <line x1="0" y1="420" x2="1600" y2="420" stroke="#FFF" stroke-width="0.5"/>
    <line x1="0" y1="480" x2="1600" y2="480" stroke="#FFF" stroke-width="0.5"/>
    <line x1="0" y1="540" x2="1600" y2="540" stroke="#FFF" stroke-width="0.5"/>
    <line x1="0" y1="600" x2="1600" y2="600" stroke="#FFF" stroke-width="0.5"/>
    <line x1="0" y1="660" x2="1600" y2="660" stroke="#FFF" stroke-width="0.5"/>
    <line x1="0" y1="720" x2="1600" y2="720" stroke="#FFF" stroke-width="0.5"/>
    <line x1="0" y1="780" x2="1600" y2="780" stroke="#FFF" stroke-width="0.5"/>
    <line x1="0" y1="840" x2="1600" y2="840" stroke="#FFF" stroke-width="0.5"/>
    <line x1="60" y1="0" x2="60" y2="900" stroke="#FFF" stroke-width="0.5"/>
    <line x1="120" y1="0" x2="120" y2="900" stroke="#FFF" stroke-width="0.5"/>
    <line x1="180" y1="0" x2="180" y2="900" stroke="#FFF" stroke-width="0.5"/>
    <line x1="240" y1="0" x2="240" y2="900" stroke="#FFF" stroke-width="0.5"/>
    <line x1="300" y1="0" x2="300" y2="900" stroke="#FFF" stroke-width="0.5"/>
    <line x1="360" y1="0" x2="360" y2="900" stroke="#FFF" stroke-width="0.5"/>
    <line x1="420" y1="0" x2="420" y2="900" stroke="#FFF" stroke-width="0.5"/>
    <line x1="480" y1="0" x2="480" y2="900" stroke="#FFF" stroke-width="0.5"/>
    <line x1="540" y1="0" x2="540" y2="900" stroke="#FFF" stroke-width="0.5"/>
    <line x1="600" y1="0" x2="600" y2="900" stroke="#FFF" stroke-width="0.5"/>
    <line x1="660" y1="0" x2="660" y2="900" stroke="#FFF" stroke-width="0.5"/>
    <line x1="720" y1="0" x2="720" y2="900" stroke="#FFF" stroke-width="0.5"/>
    <line x1="780" y1="0" x2="780" y2="900" stroke="#FFF" stroke-width="0.5"/>
    <line x1="840" y1="0" x2="840" y2="900" stroke="#FFF" stroke-width="0.5"/>
    <line x1="900" y1="0" x2="900" y2="900" stroke="#FFF" stroke-width="0.5"/>
    <line x1="960" y1="0" x2="960" y2="900" stroke="#FFF" stroke-width="0.5"/>
    <line x1="1020" y1="0" x2="1020" y2="900" stroke="#FFF" stroke-width="0.5"/>
    <line x1="1080" y1="0" x2="1080" y2="900" stroke="#FFF" stroke-width="0.5"/>
    <line x1="1140" y1="0" x2="1140" y2="900" stroke="#FFF" stroke-width="0.5"/>
    <line x1="1200" y1="0" x2="1200" y2="900" stroke="#FFF" stroke-width="0.5"/>
    <line x1="1260" y1="0" x2="1260" y2="900" stroke="#FFF" stroke-width="0.5"/>
    <line x1="1320" y1="0" x2="1320" y2="900" stroke="#FFF" stroke-width="0.5"/>
    <line x1="1380" y1="0" x2="1380" y2="900" stroke="#FFF" stroke-width="0.5"/>
    <line x1="1440" y1="0" x2="1440" y2="900" stroke="#FFF" stroke-width="0.5"/>
    <line x1="1500" y1="0" x2="1500" y2="900" stroke="#FFF" stroke-width="0.5"/>
    <line x1="1560" y1="0" x2="1560" y2="900" stroke="#FFF" stroke-width="0.5"/>
  </g>

  <!-- Glow -->
  <circle cx="-80" cy="990" r="560" fill="#F59E0B" fill-opacity="0.12"/>

  <!-- Inner frame -->
  <rect x="32" y="32" width="1536" height="836" stroke="#FFFFFF" stroke-opacity="0.05"/>

  <!-- Logo -->
  <rect x="64" y="48" width="63" height="63" fill="rgba(22,22,24,0.88)" stroke="rgba(255,255,255,0.1)"/>
  <path d="M95 54L79 62V73C79 83 86 92 95 95C104 92 111 83 111 73V62L95 54Z" fill="#F59E0B"/>
  <path d="M95 59L83 64V73C83 80 88 87 95 90C102 87 107 80 107 73V64L95 59Z" fill="#0A0A0A"/>
  <circle cx="95" cy="72" r="6" fill="#F59E0B"/>

  <!-- Header -->
  <text x="142" y="82" fill="#F59E0B" font-family="monospace" font-size="14" letter-spacing="0.25em">CAPITAL PROTECTION</text>
  <text x="1536" y="82" fill="#71717A" font-family="monospace" font-size="14" text-anchor="end">FORGE8004</text>

  <!-- Left: Big statement -->
  <text x="64" y="310" fill="#FFFFFF" font-family="monospace" font-size="61" font-weight="700">YOUR AGENT SHOULD</text>
  <text x="64" y="375" fill="#FFFFFF" font-family="monospace" font-size="61" font-weight="700">NOT SPEND MORE</text>
  <text x="64" y="440" fill="#FFFFFF" font-family="monospace" font-size="61" font-weight="700">JUST BECAUSE</text>
  <text x="64" y="505" fill="#FFFFFF" font-family="monospace" font-size="61" font-weight="700">IT CAN</text>
  <text x="64" y="560" fill="#A1A1AA" font-family="sans-serif" font-size="22" line-height="1.45">Forge8004 enforces position caps, exposure limits, and daily</text>
  <text x="64" y="588" fill="#A1A1AA" font-family="sans-serif" font-size="22">loss guardrails before any capital moves.</text>

  <!-- Right: 3 safety features -->
  <!-- Position caps -->
  <rect x="960" y="240" width="576" height="120" fill="rgba(245,158,11,0.06)" stroke="rgba(245,158,11,0.25)"/>
  <path d="M1000 280L984 288V299C984 309 991 318 1000 321C1009 318 1016 309 1016 299V288L1000 280Z" stroke="#F59E0B" stroke-width="1.5" fill="none"/>
  <text x="1032" y="295" fill="#FFFFFF" font-family="monospace" font-size="19" font-weight="700">POSITION CAPS</text>
  <text x="1032" y="318" fill="#A1A1AA" font-family="monospace" font-size="14">MAX SIZE PER TRADE ENFORCED</text>

  <!-- Exposure limits -->
  <rect x="960" y="385" width="576" height="120" fill="rgba(245,158,11,0.06)" stroke="rgba(245,158,11,0.25)"/>
  <path d="M1000 425L984 433V444C984 454 991 463 1000 466C1009 463 1016 454 1016 444V433L1000 425Z" stroke="#F59E0B" stroke-width="1.5" fill="none"/>
  <text x="1032" y="440" fill="#FFFFFF" font-family="monospace" font-size="19" font-weight="700">EXPOSURE LIMITS</text>
  <text x="1032" y="463" fill="#A1A1AA" font-family="monospace" font-size="14">TOTAL OPEN RISK CONTROLLED</text>

  <!-- Loss guardrails -->
  <rect x="960" y="530" width="576" height="120" fill="rgba(245,158,11,0.06)" stroke="rgba(245,158,11,0.25)"/>
  <path d="M1000 570L984 578V589C984 599 991 608 1000 611C1009 608 1016 599 1016 589V578L1000 570Z" stroke="#F59E0B" stroke-width="1.5" fill="none"/>
  <text x="1032" y="585" fill="#FFFFFF" font-family="monospace" font-size="19" font-weight="700">LOSS GUARDRAILS</text>
  <text x="1032" y="608" fill="#A1A1AA" font-family="monospace" font-size="14">DAILY DRAWDOWN CEILING ACTIVE</text>

  <!-- Footer -->
  <line x1="64" y1="830" x2="1536" y2="830" stroke="rgba(255,255,255,0.06)"/>
  <text x="64" y="862" fill="#71717A" font-family="monospace" font-size="14" letter-spacing="0.2em">FORGE8004 // 2026</text>
  <text x="1536" y="862" fill="#A1A1AA" font-family="monospace" font-size="14" text-anchor="end" letter-spacing="0.15em">FORGE8004.XYZ</text>
</svg>