<svg width="1080" height="1080" viewBox="0 0 1080 1080" fill="none" xmlns="http://www.w3.org/2000/svg">
  <rect width="1080" height="1080" fill="#0A0A0B"/>

  <!-- Grid pattern -->
  <g opacity="0.07">
    <line x1="0" y1="60" x2="1080" y2="60" stroke="#FFF" stroke-width="0.5"/>
    <line x1="0" y1="120" x2="1080" y2="120" stroke="#FFF" stroke-width="0.5"/>
    <line x1="0" y1="180" x2="1080" y2="180" stroke="#FFF" stroke-width="0.5"/>
    <line x1="0" y1="240" x2="1080" y2="240" stroke="#FFF" stroke-width="0.5"/>
    <line x1="0" y1="300" x2="1080" y2="300" stroke="#FFF" stroke-width="0.5"/>
    <line x1="0" y1="360" x2="1080" y2="360" stroke="#FFF" stroke-width="0.5"/>
    <line x1="0" y1="420" x2="1080" y2="420" stroke="#FFF" stroke-width="0.5"/>
    <line x1="0" y1="480" x2="1080" y2="480" stroke="#FFF" stroke-width="0.5"/>
    <line x1="0" y1="540" x2="1080" y2="540" stroke="#FFF" stroke-width="0.5"/>
    <line x1="0" y1="600" x2="1080" y2="600" stroke="#FFF" stroke-width="0.5"/>
    <line x1="0" y1="660" x2="1080" y2="660" stroke="#FFF" stroke-width="0.5"/>
    <line x1="0" y1="720" x2="1080" y2="720" stroke="#FFF" stroke-width="0.5"/>
    <line x1="0" y1="780" x2="1080" y2="780" stroke="#FFF" stroke-width="0.5"/>
    <line x1="0" y1="840" x2="1080" y2="840" stroke="#FFF" stroke-width="0.5"/>
    <line x1="0" y1="900" x2="1080" y2="900" stroke="#FFF" stroke-width="0.5"/>
    <line x1="0" y1="960" x2="1080" y2="960" stroke="#FFF" stroke-width="0.5"/>
    <line x1="0" y1="1020" x2="1080" y2="1020" stroke="#FFF" stroke-width="0.5"/>
    <line x1="60" y1="0" x2="60" y2="1080" stroke="#FFF" stroke-width="0.5"/>
    <line x1="120" y1="0" x2="120" y2="1080" stroke="#FFF" stroke-width="0.5"/>
    <line x1="180" y1="0" x2="180" y2="1080" stroke="#FFF" stroke-width="0.5"/>
    <line x1="240" y1="0" x2="240" y2="1080" stroke="#FFF" stroke-width="0.5"/>
    <line x1="300" y1="0" x2="300" y2="1080" stroke="#FFF" stroke-width="0.5"/>
    <line x1="360" y1="0" x2="360" y2="1080" stroke="#FFF" stroke-width="0.5"/>
    <line x1="420" y1="0" x2="420" y2="1080" stroke="#FFF" stroke-width="0.5"/>
    <line x1="480" y1="0" x2="480" y2="1080" stroke="#FFF" stroke-width="0.5"/>
    <line x1="540" y1="0" x2="540" y2="1080" stroke="#FFF" stroke-width="0.5"/>
    <line x1="600" y1="0" x2="600" y2="1080" stroke="#FFF" stroke-width="0.5"/>
    <line x1="660" y1="0" x2="660" y2="1080" stroke="#FFF" stroke-width="0.5"/>
    <line x1="720" y1="0" x2="720" y2="1080" stroke="#FFF" stroke-width="0.5"/>
    <line x1="780" y1="0" x2="780" y2="1080" stroke="#FFF" stroke-width="0.5"/>
    <line x1="840" y1="0" x2="840" y2="1080" stroke="#FFF" stroke-width="0.5"/>
    <line x1="900" y1="0" x2="900" y2="1080" stroke="#FFF" stroke-width="0.5"/>
    <line x1="960" y1="0" x2="960" y2="1080" stroke="#FFF" stroke-width="0.5"/>
    <line x1="1020" y1="0" x2="1020" y2="1080" stroke="#FFF" stroke-width="0.5"/>
  </g>

  <!-- Glow -->
  <circle cx="540" cy="-108" r="486" fill="#8B5CF6" fill-opacity="0.12"/>

  <!-- Inner frame -->
  <rect x="32" y="32" width="1016" height="1016" stroke="#FFFFFF" stroke-opacity="0.05"/>

  <!-- Logo -->
  <rect x="65" y="65" width="76" height="76" fill="rgba(22,22,24,0.88)" stroke="rgba(255,255,255,0.1)"/>
  <path d="M103 73L83 82V95C83 107 91 118 103 122C115 118 123 107 123 95V82L103 73Z" fill="#8B5CF6"/>
  <path d="M103 79L89 85V95C89 104 95 112 103 115C111 112 117 104 117 95V85L103 79Z" fill="#0A0A0A"/>
  <circle cx="103" cy="97" r="8" fill="#8B5CF6"/>

  <!-- Team visibility label -->
  <text x="1015" y="108" fill="#8B5CF6" font-family="monospace" font-size="14" text-anchor="end" letter-spacing="0.2em">TEAM VISIBILITY</text>

  <!-- Center: Users icon -->
  <g transform="translate(500,280)">
    <circle cx="40" cy="20" r="18" stroke="#8B5CF6" stroke-width="2" fill="none"/>
    <path d="M10 70C10 52 22 40 40 40C58 40 70 52 70 70" stroke="#8B5CF6" stroke-width="2" fill="none"/>
    <circle cx="75" cy="25" r="13" stroke="#8B5CF6" stroke-width="1.5" fill="none" opacity="0.6"/>
    <path d="M60 70C65 58 70 50 85 50C95 50 100 58 100 65" stroke="#8B5CF6" stroke-width="1.5" fill="none" opacity="0.6"/>
  </g>

  <!-- Headline (centered) -->
  <text x="540" y="440" fill="#FFFFFF" font-family="monospace" font-size="52" font-weight="700" text-anchor="middle">ONE SHARED VIEW</text>
  <text x="540" y="500" fill="#FFFFFF" font-family="monospace" font-size="52" font-weight="700" text-anchor="middle">FOR THE WHOLE TEAM</text>

  <!-- Subtitle -->
  <text x="540" y="555" fill="#A1A1AA" font-family="sans-serif" font-size="20" text-anchor="middle">From first signal to final result, everyone follows the same clean story.</text>

  <!-- 3 audience rows -->
  <!-- Founders -->
  <rect x="65" y="640" width="950" height="70" fill="rgba(0,0,0,0.25)" stroke="rgba(255,255,255,0.08)"/>
  <rect x="90" y="668" width="8" height="8" fill="#8B5CF6"/>
  <text x="115" y="680" fill="#FFFFFF" font-family="monospace" font-size="16" font-weight="700">FOUNDERS</text>
  <text x="280" y="680" fill="#A1A1AA" font-family="monospace" font-size="14">EXPLAIN WHAT THE AGENT IS DOING CLEARLY</text>

  <!-- Ops teams -->
  <rect x="65" y="725" width="950" height="70" fill="rgba(0,0,0,0.25)" stroke="rgba(255,255,255,0.08)"/>
  <rect x="90" y="753" width="8" height="8" fill="#8B5CF6"/>
  <text x="115" y="765" fill="#FFFFFF" font-family="monospace" font-size="16" font-weight="700">OPS TEAMS</text>
  <text x="280" y="765" fill="#A1A1AA" font-family="monospace" font-size="14">SUPERVISE SIGNALS AND RISK IN ONE PLACE</text>

  <!-- Partners -->
  <rect x="65" y="810" width="950" height="70" fill="rgba(0,0,0,0.25)" stroke="rgba(255,255,255,0.08)"/>
  <rect x="90" y="838" width="8" height="8" fill="#8B5CF6"/>
  <text x="115" y="850" fill="#FFFFFF" font-family="monospace" font-size="16" font-weight="700">PARTNERS</text>
  <text x="280" y="850" fill="#A1A1AA" font-family="monospace" font-size="14">SHARE A CREDIBLE PRODUCT STORY</text>

  <!-- Footer -->
  <line x1="65" y1="975" x2="1015" y2="975" stroke="rgba(255,255,255,0.06)"/>
  <text x="65" y="1010" fill="#71717A" font-family="monospace" font-size="14" letter-spacing="0.2em">FORGE8004 // 2026</text>
  <text x="1015" y="1010" fill="#A1A1AA" font-family="monospace" font-size="14" text-anchor="end" letter-spacing="0.15em">FORGE8004.XYZ</text>
</svg>