<svg width="1200" height="628" viewBox="0 0 1200 628" fill="none" xmlns="http://www.w3.org/2000/svg">
  <rect width="1200" height="628" fill="#0A0A0B"/>

  <!-- Grid pattern -->
  <g opacity="0.07">
    <line x1="0" y1="60" x2="1200" y2="60" stroke="#FFF" stroke-width="0.5"/>
    <line x1="0" y1="120" x2="1200" y2="120" stroke="#FFF" stroke-width="0.5"/>
    <line x1="0" y1="180" x2="1200" y2="180" stroke="#FFF" stroke-width="0.5"/>
    <line x1="0" y1="240" x2="1200" y2="240" stroke="#FFF" stroke-width="0.5"/>
    <line x1="0" y1="300" x2="1200" y2="300" stroke="#FFF" stroke-width="0.5"/>
    <line x1="0" y1="360" x2="1200" y2="360" stroke="#FFF" stroke-width="0.5"/>
    <line x1="0" y1="420" x2="1200" y2="420" stroke="#FFF" stroke-width="0.5"/>
    <line x1="0" y1="480" x2="1200" y2="480" stroke="#FFF" stroke-width="0.5"/>
    <line x1="0" y1="540" x2="1200" y2="540" stroke="#FFF" stroke-width="0.5"/>
    <line x1="0" y1="600" x2="1200" y2="600" stroke="#FFF" stroke-width="0.5"/>
    <line x1="60" y1="0" x2="60" y2="628" stroke="#FFF" stroke-width="0.5"/>
    <line x1="120" y1="0" x2="120" y2="628" stroke="#FFF" stroke-width="0.5"/>
    <line x1="180" y1="0" x2="180" y2="628" stroke="#FFF" stroke-width="0.5"/>
    <line x1="240" y1="0" x2="240" y2="628" stroke="#FFF" stroke-width="0.5"/>
    <line x1="300" y1="0" x2="300" y2="628" stroke="#FFF" stroke-width="0.5"/>
    <line x1="360" y1="0" x2="360" y2="628" stroke="#FFF" stroke-width="0.5"/>
    <line x1="420" y1="0" x2="420" y2="628" stroke="#FFF" stroke-width="0.5"/>
    <line x1="480" y1="0" x2="480" y2="628" stroke="#FFF" stroke-width="0.5"/>
    <line x1="540" y1="0" x2="540" y2="628" stroke="#FFF" stroke-width="0.5"/>
    <line x1="600" y1="0" x2="600" y2="628" stroke="#FFF" stroke-width="0.5"/>
    <line x1="660" y1="0" x2="660" y2="628" stroke="#FFF" stroke-width="0.5"/>
    <line x1="720" y1="0" x2="720" y2="628" stroke="#FFF" stroke-width="0.5"/>
    <line x1="780" y1="0" x2="780" y2="628" stroke="#FFF" stroke-width="0.5"/>
    <line x1="840" y1="0" x2="840" y2="628" stroke="#FFF" stroke-width="0.5"/>
    <line x1="900" y1="0" x2="900" y2="628" stroke="#FFF" stroke-width="0.5"/>
    <line x1="960" y1="0" x2="960" y2="628" stroke="#FFF" stroke-width="0.5"/>
    <line x1="1020" y1="0" x2="1020" y2="628" stroke="#FFF" stroke-width="0.5"/>
    <line x1="1080" y1="0" x2="1080" y2="628" stroke="#FFF" stroke-width="0.5"/>
    <line x1="1140" y1="0" x2="1140" y2="628" stroke="#FFF" stroke-width="0.5"/>
  </g>

  <!-- Glow -->
  <circle cx="-60" cy="-63" r="360" fill="#10B981" fill-opacity="0.14"/>

  <!-- Inner frame -->
  <rect x="24" y="24" width="1152" height="580" stroke="#FFFFFF" stroke-opacity="0.05"/>

  <!-- Logo -->
  <rect x="48" y="36" width="50" height="50" fill="rgba(22,22,24,0.88)" stroke="rgba(255,255,255,0.1)"/>
  <path d="M73 42L59 49V58C59 66 65 73 73 76C81 73 87 66 87 58V49L73 42Z" fill="#10B981"/>
  <path d="M73 46L63 50V58C63 64 67 69 73 72C79 69 83 64 83 58V50L73 46Z" fill="#0A0A0A"/>
  <circle cx="73" cy="56" r="5" fill="#10B981"/>

  <!-- Header -->
  <text x="112" y="62" fill="#FFFFFF" font-family="monospace" font-size="19" font-weight="700">ERC-8004</text>

  <!-- Token standard badge -->
  <rect x="1040" y="40" width="112" height="30" fill="rgba(16,185,129,0.06)" stroke="rgba(16,185,129,0.25)"/>
  <text x="1096" y="60" fill="#10B981" font-family="monospace" font-size="12" text-anchor="middle" letter-spacing="0.15em">TOKEN STANDARD</text>

  <!-- 3 pillar cards -->
  <!-- Agent NFT -->
  <rect x="48" y="130" width="360" height="350" fill="rgba(0,0,0,0.25)" stroke="rgba(255,255,255,0.08)"/>
  <!-- Zap icon -->
  <path d="M80 165L95 155L90 175L105 165" stroke="#10B981" stroke-width="2" fill="none"/>
  <text x="72" y="220" fill="#FFFFFF" font-family="monospace" font-size="17" font-weight="700">AGENT NFT</text>
  <text x="72" y="250" fill="#A1A1AA" font-family="monospace" font-size="13" line-height="1.5">EACH AGENT IS A NON-FUNGIBLE</text>
  <text x="72" y="270" fill="#A1A1AA" font-family="monospace" font-size="13">TOKEN STORING IDENTITY AND</text>
  <text x="72" y="290" fill="#A1A1AA" font-family="monospace" font-size="13">METADATA ON-CHAIN</text>

  <!-- Policy Engine -->
  <rect x="420" y="130" width="360" height="350" fill="rgba(0,0,0,0.25)" stroke="rgba(255,255,255,0.08)"/>
  <!-- Shield icon -->
  <path d="M452 165L440 171V180C440 188 445 195 452 198C459 195 464 188 464 180V171L452 165Z" stroke="#10B981" stroke-width="1.5" fill="none"/>
  <text x="444" y="220" fill="#FFFFFF" font-family="monospace" font-size="17" font-weight="700">POLICY ENGINE</text>
  <text x="444" y="250" fill="#A1A1AA" font-family="monospace" font-size="13">VALIDATION RULES ARE CHECKED</text>
  <text x="444" y="270" fill="#A1A1AA" font-family="monospace" font-size="13">BEFORE ANY CAPITAL MOVEMENT</text>
  <text x="444" y="290" fill="#A1A1AA" font-family="monospace" font-size="13">IS ALLOWED</text>

  <!-- Reputation -->
  <rect x="792" y="130" width="360" height="350" fill="rgba(0,0,0,0.25)" stroke="rgba(255,255,255,0.08)"/>
  <!-- Bar chart icon -->
  <rect x="816" y="175" width="8" height="20" fill="#10B981" opacity="0.6"/>
  <rect x="828" y="165" width="8" height="30" fill="#10B981" opacity="0.8"/>
  <rect x="840" y="155" width="8" height="40" fill="#10B981"/>
  <text x="816" y="220" fill="#FFFFFF" font-family="monospace" font-size="17" font-weight="700">REPUTATION</text>
  <text x="816" y="250" fill="#A1A1AA" font-family="monospace" font-size="13">ON-CHAIN PERFORMANCE AND</text>
  <text x="816" y="270" fill="#A1A1AA" font-family="monospace" font-size="13">BEHAVIOR HISTORY BUILDS</text>
  <text x="816" y="290" fill="#A1A1AA" font-family="monospace" font-size="13">TRUST OVER TIME</text>

  <!-- Footer -->
  <line x1="48" y1="570" x2="1152" y2="570" stroke="rgba(255,255,255,0.06)"/>
  <text x="48" y="600" fill="#71717A" font-family="monospace" font-size="13" letter-spacing="0.2em">FORGE8004 // 2026</text>
  <text x="1152" y="600" fill="#A1A1AA" font-family="monospace" font-size="13" text-anchor="end" letter-spacing="0.15em">FORGE8004.XYZ</text>
</svg>