<svg width="1600" height="900" viewBox="0 0 1600 900" fill="none" xmlns="http://www.w3.org/2000/svg">
  <rect width="1600" height="900" fill="#0A0A0B"/>

  <!-- Grid pattern -->
  <g opacity="0.07">
    <line x1="0" y1="60" x2="1600" y2="60" stroke="#FFF" stroke-width="0.5"/>
    <line x1="0" y1="120" x2="1600" y2="120" stroke="#FFF" stroke-width="0.5"/>
    <line x1="0" y1="180" x2="1600" y2="180" stroke="#FFF" stroke-width="0.5"/>
    <line x1="0" y1="240" x2="1600" y2="240" stroke="#FFF" stroke-width="0.5"/>
    <line x1="0" y1="300" x2="1600" y2="300" stroke="#FFF" stroke-width="0.5"/>
    <line x1="0" y1="360" x2="1600" y2="360" stroke="#FFF" stroke-width="0.5"/>
    <line x1="0" y1="420" x2="1600" y2="420" stroke="#FFF" stroke-width="0.5"/>
    <line x1="0" y1="480" x2="1600" y2="480" stroke="#FFF" stroke-width="0.5"/>
    <line x1="0" y1="540" x2="1600" y2="540" stroke="#FFF" stroke-width="0.5"/>
    <line x1="0" y1="600" x2="1600" y2="600" stroke="#FFF" stroke-width="0.5"/>
    <line x1="0" y1="660" x2="1600" y2="660" stroke="#FFF" stroke-width="0.5"/>
    <line x1="0" y1="720" x2="1600" y2="720" stroke="#FFF" stroke-width="0.5"/>
    <line x1="0" y1="780" x2="1600" y2="780" stroke="#FFF" stroke-width="0.5"/>
    <line x1="0" y1="840" x2="1600" y2="840" stroke="#FFF" stroke-width="0.5"/>
    <line x1="60" y1="0" x2="60" y2="900" stroke="#FFF" stroke-width="0.5"/>
    <line x1="120" y1="0" x2="120" y2="900" stroke="#FFF" stroke-width="0.5"/>
    <line x1="180" y1="0" x2="180" y2="900" stroke="#FFF" stroke-width="0.5"/>
    <line x1="240" y1="0" x2="240" y2="900" stroke="#FFF" stroke-width="0.5"/>
    <line x1="300" y1="0" x2="300" y2="900" stroke="#FFF" stroke-width="0.5"/>
    <line x1="360" y1="0" x2="360" y2="900" stroke="#FFF" stroke-width="0.5"/>
    <line x1="420" y1="0" x2="420" y2="900" stroke="#FFF" stroke-width="0.5"/>
    <line x1="480" y1="0" x2="480" y2="900" stroke="#FFF" stroke-width="0.5"/>
    <line x1="540" y1="0" x2="540" y2="900" stroke="#FFF" stroke-width="0.5"/>
    <line x1="600" y1="0" x2="600" y2="900" stroke="#FFF" stroke-width="0.5"/>
    <line x1="660" y1="0" x2="660" y2="900" stroke="#FFF" stroke-width="0.5"/>
    <line x1="720" y1="0" x2="720" y2="900" stroke="#FFF" stroke-width="0.5"/>
    <line x1="780" y1="0" x2="780" y2="900" stroke="#FFF" stroke-width="0.5"/>
    <line x1="840" y1="0" x2="840" y2="900" stroke="#FFF" stroke-width="0.5"/>
    <line x1="900" y1="0" x2="900" y2="900" stroke="#FFF" stroke-width="0.5"/>
    <line x1="960" y1="0" x2="960" y2="900" stroke="#FFF" stroke-width="0.5"/>
    <line x1="1020" y1="0" x2="1020" y2="900" stroke="#FFF" stroke-width="0.5"/>
    <line x1="1080" y1="0" x2="1080" y2="900" stroke="#FFF" stroke-width="0.5"/>
    <line x1="1140" y1="0" x2="1140" y2="900" stroke="#FFF" stroke-width="0.5"/>
    <line x1="1200" y1="0" x2="1200" y2="900" stroke="#FFF" stroke-width="0.5"/>
    <line x1="1260" y1="0" x2="1260" y2="900" stroke="#FFF" stroke-width="0.5"/>
    <line x1="1320" y1="0" x2="1320" y2="900" stroke="#FFF" stroke-width="0.5"/>
    <line x1="1380" y1="0" x2="1380" y2="900" stroke="#FFF" stroke-width="0.5"/>
    <line x1="1440" y1="0" x2="1440" y2="900" stroke="#FFF" stroke-width="0.5"/>
    <line x1="1500" y1="0" x2="1500" y2="900" stroke="#FFF" stroke-width="0.5"/>
    <line x1="1560" y1="0" x2="1560" y2="900" stroke="#FFF" stroke-width="0.5"/>
  </g>

  <!-- Glows -->
  <circle cx="480" cy="-135" r="800" fill="#10B981" fill-opacity="0.10"/>
  <circle cx="1680" cy="990" r="480" fill="#8B5CF6" fill-opacity="0.10"/>

  <!-- Inner frame -->
  <rect x="32" y="32" width="1536" height="836" stroke="#FFFFFF" stroke-opacity="0.05"/>

  <!-- Logo -->
  <rect x="64" y="48" width="63" height="63" fill="rgba(22,22,24,0.88)" stroke="rgba(255,255,255,0.1)"/>
  <path d="M95 54L79 62V73C79 83 86 92 95 95C104 92 111 83 111 73V62L95 54Z" fill="#10B981"/>
  <path d="M95 59L83 64V73C83 80 88 87 95 90C102 87 107 80 107 73V64L95 59Z" fill="#0A0A0A"/>
  <circle cx="95" cy="72" r="6" fill="#10B981"/>

  <!-- Header -->
  <text x="1536" y="82" fill="#71717A" font-family="monospace" font-size="14" text-anchor="end">FORGE8004</text>

  <!-- Center: Big headline -->
  <text x="800" y="330" fill="#FFFFFF" font-family="monospace" font-size="72" font-weight="700" text-anchor="middle">UNDERSTAND THE AGENT.</text>
  <text x="800" y="410" fill="#FFFFFF" font-family="monospace" font-size="72" font-weight="700" text-anchor="middle">PROTECT THE MONEY.</text>
  <text x="800" y="490" fill="#FFFFFF" font-family="monospace" font-size="72" font-weight="700" text-anchor="middle">SHARE THE STORY.</text>

  <!-- Subtitle -->
  <text x="800" y="555" fill="#A1A1AA" font-family="sans-serif" font-size="24" text-anchor="middle">Forge8004 is the ERC-8004 trust layer for autonomous financial agents —</text>
  <text x="800" y="585" fill="#A1A1AA" font-family="sans-serif" font-size="24" text-anchor="middle">identity, validation, capital sandboxing, and transparent trading telemetry.</text>

  <!-- CTA buttons -->
  <!-- Explore button -->
  <rect x="510" y="640" width="300" height="56" fill="rgba(16,185,129,0.06)" stroke="rgba(16,185,129,0.25)"/>
  <text x="630" y="674" fill="#FFFFFF" font-family="monospace" font-size="16" font-weight="700" text-anchor="middle">EXPLORE THE WORKSPACE</text>
  <path d="M740 668L752 668" stroke="#10B981" stroke-width="2"/>
  <path d="M748 662L754 668L748 674" stroke="#10B981" stroke-width="2" fill="none"/>

  <!-- URL button -->
  <rect x="830" y="640" width="260" height="56" fill="rgba(0,0,0,0.25)" stroke="rgba(255,255,255,0.08)"/>
  <text x="960" y="674" fill="#A1A1AA" font-family="monospace" font-size="16" font-weight="700" text-anchor="middle">FORGE8004.XYZ</text>

  <!-- Footer -->
  <line x1="64" y1="830" x2="1536" y2="830" stroke="rgba(255,255,255,0.06)"/>
  <text x="64" y="862" fill="#71717A" font-family="monospace" font-size="14" letter-spacing="0.2em">FORGE8004 // 2026</text>
  <text x="1536" y="862" fill="#A1A1AA" font-family="monospace" font-size="14" text-anchor="end" letter-spacing="0.15em">FORGE8004.XYZ</text>
</svg>